<?xml version="1.0" standalone="no"?>
<!DOCTYPE svg PUBLIC "-//W3C//DTD SVG 20010904//EN"
 "http://www.w3.org/TR/2001/REC-SVG-20010904/DTD/svg10.dtd">
<svg version="1.0" xmlns="http://www.w3.org/2000/svg"
 width="1200.000000pt" height="1600.000000pt" viewBox="0 0 1200.000000 1600.000000"
 preserveAspectRatio="xMidYMid meet">
<metadata>
Created by potrace 1.16, written by Peter Selinger 2001-2019
</metadata>
<g transform="translate(0.000000,1600.000000) scale(0.100000,-0.100000)"
fill="#000000" stroke="none">
<path d="M0 15776 c0 -213 1 -224 19 -229 26 -6 31 10 31 89 0 49 4 66 15 71
14 5 13 7 -3 19 -17 12 -21 31 -27 144 -6 101 -10 130 -21 130 -12 0 -14 -40
-14 -224z"/>
<path d="M70 15960 c0 -22 -5 -40 -11 -40 -6 0 1 -13 14 -30 17 -20 25 -39 23
-57 -2 -16 1 -34 6 -41 6 -7 8 -30 4 -53 -4 -22 -3 -46 1 -52 12 -18 30 -247
19 -247 -4 0 -3 -7 4 -15 7 -8 10 -26 7 -41 -3 -18 -1 -24 9 -20 11 4 14 -7
14 -52 0 -31 5 -95 11 -142 5 -47 12 -104 15 -128 4 -32 9 -42 20 -38 18 7 20
-34 2 -52 -8 -8 -9 -18 -1 -34 37 -79 47 -110 51 -168 2 -36 11 -77 18 -92 13
-25 13 -28 -1 -28 -10 0 -15 -7 -13 -17 2 -10 8 -18 14 -18 6 0 19 -9 30 -19
19 -19 18 -19 -8 -13 l-27 7 17 -45 c11 -32 22 -45 35 -45 20 0 20 -15 1 -122
-4 -25 -2 -38 5 -38 6 0 11 -19 11 -46 0 -38 3 -45 18 -42 12 2 18 15 20 46 3
41 15 55 26 30 3 -7 2 5 -1 27 -4 22 -6 47 -5 55 1 8 5 123 8 255 3 167 2 235
-5 225 -9 -12 -11 -10 -11 12 0 15 4 29 9 32 5 3 7 68 4 143 -3 76 -4 166 -3
200 0 34 -4 98 -10 142 -6 43 -13 162 -16 263 -2 100 -7 218 -10 261 l-7 77
-143 0 -144 0 0 -40z"/>
<path d="M590 15975 c0 -14 9 -88 20 -166 11 -78 18 -151 14 -161 -3 -10 0
-25 6 -33 7 -8 13 -33 13 -55 1 -22 5 -40 8 -40 6 0 28 -140 28 -180 1 -36 13
-95 22 -106 8 -10 16 -9 36 1 l26 14 -2 133 c-1 73 -4 135 -7 139 -2 4 -5 113
-6 243 l-2 236 -78 0 c-76 0 -78 -1 -78 -25z"/>
<path d="M1010 15955 c0 -33 5 -47 16 -52 15 -6 15 -8 -2 -20 -19 -14 -19 -15
1 -29 17 -13 19 -25 16 -138 -2 -93 2 -137 13 -171 9 -25 16 -77 16 -115 0
-46 4 -70 11 -70 8 0 10 -18 6 -60 -4 -36 -3 -62 3 -65 6 -4 10 -12 8 -18 -1
-7 4 -38 11 -69 7 -32 12 -88 10 -125 -1 -38 1 -79 5 -93 3 -14 8 -56 10 -95
10 -164 47 -638 56 -730 12 -119 15 -152 35 -400 19 -225 41 -447 55 -530 18
-113 -3 305 -30 585 -5 58 -12 150 -15 204 -3 54 -6 102 -7 105 -2 22 5 73 9
59 2 -10 9 -18 14 -18 5 0 9 -7 9 -15 0 -8 -4 -15 -10 -15 -5 0 -10 -7 -10
-15 0 -8 5 -15 10 -15 6 0 10 5 10 12 0 6 6 4 13 -6 20 -27 26 -4 17 61 -3 29
-2 60 3 69 6 11 7 52 1 108 -4 50 -9 141 -10 201 -8 334 -14 518 -19 523 -3 3
-5 63 -5 134 0 70 -4 128 -9 128 -5 0 -9 50 -9 110 -1 61 -4 114 -7 120 -5 9
-29 410 -27 463 l1 27 -99 0 -100 0 0 -45z"/>
<path d="M1475 15923 c9 -86 9 -219 0 -234 -4 -5 -2 -9 3 -9 5 0 13 -33 16
-72 4 -40 11 -91 16 -113 4 -22 5 -61 1 -87 -4 -27 -4 -48 1 -48 5 0 5 -12 2
-26 -4 -17 -2 -29 7 -35 10 -6 11 -11 3 -16 -11 -8 -4 -109 11 -145 4 -11 3
-18 -4 -18 -15 0 -14 -37 2 -43 9 -3 11 -31 10 -100 -1 -61 2 -97 9 -97 6 0 8
-18 4 -47 -3 -27 -1 -75 5 -108 7 -33 13 -96 14 -140 1 -44 4 -91 8 -105 12
-49 16 -100 7 -95 -17 10 -22 -16 -6 -34 14 -15 23 -44 25 -78 1 -7 10 -22 21
-33 11 -11 15 -20 9 -20 -6 0 -9 -7 -6 -14 4 -10 1 -13 -9 -9 -10 3 -12 0 -8
-10 3 -8 1 -18 -5 -22 -6 -3 -11 -11 -11 -17 0 -6 18 6 39 25 37 33 75 47 171
61 17 2 13 4 -11 5 -34 1 -37 4 -43 39 -16 89 -21 595 -6 600 6 2 4 12 -5 24
-10 15 -11 26 -4 40 6 11 6 18 0 18 -5 0 -7 18 -4 40 3 23 1 40 -4 40 -6 0 -7
18 -2 48 4 26 3 52 -1 57 -4 6 -9 69 -10 140 -2 72 -5 168 -6 215 -2 47 -3
114 -3 150 0 36 -3 129 -7 208 l-7 142 -115 0 -114 0 7 -77z"/>
<path d="M1904 15958 c12 -92 16 -154 7 -128 -8 22 -9 19 -10 -20 0 -25 2 -63
6 -85 l7 -40 7 30 c6 23 7 18 7 -25 0 -30 2 -62 5 -70 11 -29 17 -180 7 -180
-6 0 -10 -7 -10 -16 0 -8 4 -13 9 -10 11 7 29 -128 42 -314 10 -152 16 -199
18 -140 1 41 -10 179 -39 515 -25 295 -39 473 -40 503 0 12 -5 22 -11 22 -7 0
-9 -14 -5 -42z"/>
<path d="M1995 15943 c3 -32 10 -148 15 -258 6 -110 17 -308 25 -440 8 -132
24 -415 35 -630 12 -214 23 -396 25 -402 3 -7 15 -13 28 -13 23 0 24 3 21 43
-4 45 -28 451 -44 762 -30 569 -40 780 -40 867 0 117 -4 128 -41 128 l-29 0 5
-57z"/>
<path d="M2192 15904 c3 -69 8 -98 18 -105 9 -5 10 -9 3 -9 -16 0 -5 -107 14
-138 9 -14 14 -45 13 -80 -2 -81 -1 -91 11 -67 7 14 8 9 3 -20 -7 -48 -7 -45
-4 -70 1 -20 2 -20 9 0 5 11 10 -39 14 -120 4 -77 11 -223 17 -325 5 -102 12
-234 15 -295 3 -60 8 -135 11 -166 l6 -57 -26 5 c-40 8 -53 -11 -61 -88 -4
-39 -13 -93 -20 -120 l-13 -49 39 0 c25 0 38 4 34 10 -8 12 15 150 24 150 22
-1 29 -22 28 -86 -1 -66 -2 -71 -21 -67 -18 4 -18 3 -5 -6 16 -10 269 -35 276
-27 3 2 0 73 -6 158 -6 84 -13 182 -16 218 -20 292 -52 753 -60 840 -3 37 -1
48 5 34 4 -11 11 -68 15 -125 3 -57 10 -140 15 -184 8 -76 8 -75 4 30 -2 61
-8 241 -14 400 -5 160 -13 327 -16 373 l-6 82 -155 0 -155 0 4 -96z"/>
<path d="M2901 15968 c5 -18 9 -103 9 -188 0 -85 4 -240 10 -345 5 -104 17
-436 26 -737 l18 -546 40 -6 c23 -3 84 -8 136 -12 l95 -6 -7 218 c-18 567 -37
1396 -38 1617 l0 37 -114 0 -114 0 3 -307 c4 -340 -5 -237 -25 300 0 4 -11 7
-24 7 -23 0 -24 -2 -15 -32z"/>
<path d="M3377 15948 c2 -29 4 -101 4 -160 1 -101 3 -108 21 -108 19 0 19 -1
5 -24 -27 -40 -8 -145 26 -146 4 0 7 19 7 41 0 33 3 39 13 31 11 -9 13 0 14
46 0 31 6 90 13 131 10 57 10 76 2 79 -14 4 -16 32 -3 32 14 0 22 46 15 90
l-7 40 -56 0 -57 0 3 -52z"/>
<path d="M3804 15966 c1 -19 4 -38 8 -41 3 -3 2 -22 -3 -42 -4 -20 -5 -41 -2
-46 8 -13 13 -73 16 -178 1 -57 7 -92 16 -103 9 -11 14 -36 12 -67 -1 -29 2
-49 9 -49 13 0 13 -77 0 -82 -6 -2 -12 -52 -14 -118 -2 -63 -1 -80 1 -37 3 68
6 77 23 77 24 0 24 7 8 136 -9 75 -9 97 1 103 7 5 12 28 11 57 -2 98 11 339
19 344 4 3 6 22 3 43 l-4 37 -52 0 -53 0 1 -34z"/>
<path d="M4156 15903 c7 -96 8 -168 4 -328 -1 -44 1 -150 4 -235 7 -166 9
-588 3 -707 -2 -40 0 -73 5 -73 7 0 4 -236 -5 -410 -1 -8 2 -28 7 -44 5 -22 4
-27 -7 -23 -8 3 -19 2 -26 -2 -13 -8 147 -22 234 -20 40 1 45 3 25 9 -14 4
-19 8 -12 9 15 1 17 81 2 81 -14 0 -13 77 1 82 9 3 9 10 0 26 -8 16 -13 233
-17 799 -3 428 -6 813 -5 856 l0 77 -111 0 -110 0 8 -97z"/>
<path d="M4616 15903 c4 -54 11 -106 15 -115 5 -9 9 -35 9 -57 0 -32 3 -39 15
-35 8 4 15 1 15 -5 0 -6 -7 -11 -15 -11 -10 0 -15 -10 -15 -34 0 -19 -3 -43
-6 -53 -5 -15 -4 -15 5 -3 8 11 11 -4 12 -60 0 -41 4 -97 9 -125 7 -45 8 -41
7 35 -1 146 13 423 23 473 17 84 16 87 -36 87 l-45 0 7 -97z"/>
<path d="M4962 15786 c3 -184 5 -216 19 -224 25 -16 47 58 31 101 -6 17 -8 33
-3 36 5 4 12 72 16 154 l6 147 -36 0 -36 0 3 -214z"/>
<path d="M5256 15892 c2 -114 11 -190 25 -208 7 -9 22 -189 21 -259 0 -11 7
-84 16 -162 12 -109 19 -143 30 -143 12 0 13 15 7 80 -5 56 -4 80 4 80 6 0 11
-17 11 -40 0 -29 4 -40 15 -40 12 0 15 17 16 88 0 48 5 114 10 147 5 33 13
110 18 170 6 61 15 137 21 170 5 33 12 97 14 143 l4 82 -107 0 -106 0 1 -108z"/>
<path d="M5965 15871 c5 -91 3 -131 -5 -136 -7 -4 -8 -11 -1 -19 7 -8 24 -538
20 -643 -3 -90 2 -173 12 -173 3 0 4 -22 1 -50 -4 -48 -4 -50 21 -50 20 0 26
6 31 35 4 20 4 40 1 45 -4 6 -2 25 4 43 6 17 11 64 12 102 2 39 5 74 8 79 6
13 10 47 14 137 3 42 7 81 10 86 4 6 9 93 12 194 4 101 10 236 16 299 5 63 9
130 9 148 l0 32 -86 0 -85 0 6 -129z"/>
<path d="M6341 15963 c0 -40 16 -91 19 -63 1 8 6 2 11 -15 9 -30 6 -634 -7
-1160 -3 -137 -4 -248 -1 -245 5 5 14 163 23 400 2 80 7 152 9 160 2 8 9 193
15 410 5 217 13 430 16 473 l6 77 -46 0 -46 0 1 -37z"/>
<path d="M6735 15956 c-4 -25 -5 -48 -2 -53 3 -5 1 -90 -4 -188 -32 -640 -66
-1281 -88 -1647 -4 -78 -3 -118 4 -118 5 0 10 15 10 33 1 17 4 82 8 142 3 61
13 229 22 375 17 299 23 385 30 485 3 39 12 205 20 370 15 297 19 373 31 553
5 78 3 92 -10 92 -10 0 -17 -14 -21 -44z"/>
<path d="M7244 15975 c4 -14 2 -25 -4 -25 -5 0 -10 -7 -10 -15 0 -8 8 -15 18
-15 16 -1 16 -1 -1 -11 -10 -6 -14 -15 -10 -22 4 -7 8 -42 8 -79 0 -67 -8 -81
-33 -56 -9 9 -12 8 -12 -5 0 -9 6 -17 14 -17 11 0 13 -12 10 -54 -3 -32 -1
-57 6 -61 15 -9 12 -35 -5 -35 -8 0 -15 5 -15 10 0 6 -8 5 -20 -2 -13 -9 -16
-16 -9 -23 7 -7 13 -5 18 4 7 11 12 9 21 -10 8 -13 9 -24 3 -26 -5 -2 -7 -22
-4 -46 5 -33 2 -45 -11 -57 -18 -15 -15 -66 3 -54 5 3 9 1 9 -5 0 -6 -12 -14
-26 -17 -23 -6 -24 -8 -10 -16 13 -7 14 -13 6 -23 -8 -9 -5 -14 10 -18 13 -3
20 -13 20 -30 0 -28 -15 -44 -23 -25 -12 29 -6 -24 8 -78 8 -31 12 -71 9 -88
-3 -17 -7 -65 -9 -106 -1 -41 -3 -75 -4 -75 -8 0 -9 -45 -1 -50 6 -3 10 -11
10 -16 0 -6 -4 -7 -10 -4 -6 4 -10 -5 -10 -19 0 -14 6 -26 13 -26 6 0 3 -7 -8
-16 -19 -14 -19 -16 -2 -28 16 -13 16 -14 -3 -19 -23 -6 -27 -37 -5 -37 8 0
15 -4 15 -10 0 -5 -4 -10 -10 -10 -18 0 -11 -20 8 -20 15 -1 15 -2 -3 -16 -14
-11 -16 -18 -7 -21 6 -3 9 -10 5 -16 -12 -19 -11 -51 1 -59 6 -4 -4 -10 -23
-14 -30 -6 -32 -9 -17 -19 20 -15 23 -121 4 -128 -10 -3 -10 -8 -2 -18 15 -21
18 -79 4 -79 -7 0 -10 -8 -7 -20 3 -11 1 -18 -4 -14 -5 3 -9 -8 -9 -23 0 -16
-5 -34 -11 -40 -7 -7 -8 -17 -3 -25 12 -19 16 -98 6 -112 -18 -22 -20 -65 -3
-69 9 -3 -8 -5 -38 -6 -95 -2 -49 -11 105 -22 167 -11 180 -9 164 22 -7 12
-18 18 -26 15 -8 -3 -14 1 -14 9 0 9 6 12 15 9 19 -8 23 4 33 109 7 77 6 87
-8 87 -25 0 -31 11 -17 28 10 13 9 15 -5 9 -10 -3 -18 -2 -18 4 0 5 14 12 31
16 20 4 26 8 18 14 -9 5 -10 11 -2 21 12 14 35 256 26 271 -2 4 -8 5 -13 2 -4
-3 -10 1 -13 9 -3 8 2 16 14 19 15 4 20 14 19 44 0 21 3 82 6 136 6 94 5 97
-15 97 -26 0 -27 13 -1 31 24 17 30 43 10 44 -10 0 -14 8 -12 25 2 14 4 73 5
132 2 100 3 108 25 119 27 15 29 39 2 39 -24 0 -23 -9 -10 210 6 91 13 211 16
268 4 70 11 107 21 117 8 8 10 15 4 15 -7 0 -11 27 -11 70 0 68 -1 70 -25 70
-22 0 -25 -5 -31 -50 -4 -27 -10 -47 -15 -44 -5 3 -9 1 -9 -5 0 -5 5 -11 10
-13 16 -5 -12 -56 -35 -62 -24 -6 -31 0 -18 16 5 7 8 46 5 86 l-4 72 -40 0
c-38 0 -40 -1 -34 -25z m123 -262 c-3 -54 -7 -115 -10 -136 -6 -44 -31 -77
-58 -77 -15 0 -16 5 -8 33 5 17 8 64 7 103 -1 39 1 75 5 80 3 6 8 23 11 38 6
33 23 56 43 56 12 0 14 -17 10 -97z m-22 -330 c-3 -106 -6 -131 -19 -152 -5
-8 -4 -16 3 -20 11 -7 -28 -31 -51 -31 -14 0 -5 125 11 143 7 9 7 23 0 48 -14
45 9 109 39 109 19 0 20 -6 17 -97z m-8 -220 c-3 -5 -8 -57 -11 -118 -10 -159
-16 -175 -61 -175 -23 0 -23 3 -5 180 8 68 15 98 27 108 18 13 57 17 50 5z
m-25 -374 c-1 -35 -5 -97 -8 -138 -6 -71 -7 -73 -40 -87 -41 -17 -44 -17 -39
-1 2 6 6 63 9 125 6 116 13 144 44 161 30 18 36 7 34 -60z m-25 -376 c-5 -115
-8 -137 -24 -149 -12 -9 -14 -13 -4 -14 11 0 11 -3 0 -16 -11 -14 -11 -18 2
-28 13 -9 14 -28 8 -115 -8 -109 -15 -127 -58 -133 -24 -3 -25 -1 -22 52 2 30
4 81 5 112 2 36 9 62 20 73 19 19 21 51 3 58 -9 3 -11 32 -6 119 7 133 23 175
66 175 14 0 15 -17 10 -134z"/>
<path d="M7686 15908 c-3 -51 -8 -133 -11 -183 -11 -196 -25 -392 -30 -425 -2
-19 -7 -87 -10 -150 -3 -63 -8 -122 -10 -130 -2 -8 -6 -51 -10 -95 -7 -109
-13 -172 -29 -360 -8 -88 -15 -183 -15 -211 -1 -28 -5 -64 -10 -80 -4 -17 -4
-36 2 -45 6 -9 7 -25 2 -35 -12 -27 -12 -28 -19 -151 -6 -79 -4 -113 3 -113 7
0 11 27 11 73 0 39 5 101 10 137 6 36 12 112 15 170 4 108 18 291 35 485 6 61
13 146 15 190 3 44 10 134 15 200 13 152 29 358 36 455 2 41 9 116 14 167 12
116 13 193 1 193 -5 0 -12 -42 -15 -92z"/>
<path d="M8645 15918 c-5 -46 -9 -105 -11 -133 -1 -27 -6 -82 -11 -121 -5 -39
-8 -121 -8 -182 0 -61 -3 -106 -7 -99 -17 27 -22 -14 -23 -189 -1 -115 -6
-188 -12 -192 -6 -4 -11 -29 -11 -56 -1 -27 -6 -72 -11 -100 -6 -28 -12 -132
-15 -231 -3 -99 -8 -188 -12 -198 -7 -18 -34 -24 -34 -6 0 5 -5 7 -11 3 -7 -4
-9 -21 -4 -48 4 -22 7 -54 6 -71 0 -23 2 -26 9 -15 7 11 10 7 10 -17 0 -43 -9
-63 -29 -63 -12 0 -13 -2 -3 -9 17 -10 23 -59 9 -68 -6 -4 -8 4 -5 21 3 14 1
26 -3 26 -8 0 -14 -43 -11 -80 3 -40 3 -117 -1 -135 -2 -11 -15 -22 -28 -25
-33 -9 80 -20 194 -20 81 0 89 2 72 14 -11 8 -24 12 -28 9 -9 -5 -4 45 10 112
4 17 6 34 5 39 -2 4 5 14 15 22 17 13 17 13 1 14 -12 0 -18 8 -18 25 0 19 5
25 23 25 19 1 20 2 6 13 -14 11 -15 21 -2 107 7 52 16 122 19 155 2 33 9 98
14 145 9 85 16 156 25 280 3 36 7 92 10 125 3 33 8 92 11 130 3 39 12 129 19
200 8 72 17 155 20 185 3 30 12 107 19 170 8 63 17 153 21 200 4 47 9 93 11
103 5 15 -5 17 -109 17 l-115 0 -7 -82z"/>
<path d="M9076 15948 c-4 -29 -13 -125 -22 -213 -8 -88 -17 -167 -19 -175 -3
-8 -7 -49 -10 -90 -3 -41 -10 -109 -16 -150 -5 -41 -12 -100 -15 -130 -3 -30
-15 -140 -27 -245 -21 -180 -24 -189 -45 -195 -27 -6 -26 -26 1 -23 9 2 17 -1
17 -5 0 -7 -13 -122 -30 -264 -5 -46 -14 -119 -20 -163 -6 -44 -11 -101 -11
-127 0 -27 -3 -48 -8 -48 -4 0 -9 -24 -10 -52 -1 -29 -5 -77 -10 -105 l-8 -53
51 2 c36 1 42 2 18 5 -27 4 -31 8 -27 26 8 29 25 164 26 202 2 51 141 1284
154 1370 2 11 4 35 4 53 1 17 5 32 11 32 9 0 13 -12 25 -77 5 -27 5 -27 -7 -6
-11 18 -13 2 -11 -104 1 -69 4 -127 6 -129 2 -3 9 42 16 98 6 57 15 132 20
168 18 134 51 396 54 423 3 26 2 27 -49 27 l-53 0 -5 -52z"/>
<path d="M9319 15958 c-1 -24 -1 -46 -1 -49 4 -29 1 -85 -8 -139 -5 -36 -12
-113 -14 -172 -3 -59 -7 -118 -9 -130 -2 -13 -2 -17 0 -10 10 27 21 0 17 -41
-9 -81 -25 -213 -44 -357 -10 -80 -22 -188 -25 -240 -4 -52 -8 -97 -11 -101
-2 -3 -8 -57 -14 -120 -5 -63 -14 -143 -20 -179 -5 -36 -16 -137 -25 -225 -9
-88 -20 -188 -24 -221 l-7 -62 50 -6 c81 -9 126 -7 130 7 2 6 11 68 20 137 15
116 21 175 46 445 5 55 20 192 34 305 14 113 53 424 86 692 33 267 60 491 60
497 0 7 -40 11 -120 11 l-120 0 -1 -42z"/>
<path d="M9687 15938 c-15 -149 -19 -263 -8 -248 6 8 11 10 11 4 0 -5 -7 -19
-15 -30 -16 -21 -20 -64 -6 -64 5 0 11 10 14 23 3 22 3 22 13 -3 10 -25 3
-263 -13 -410 -12 -116 -8 -311 6 -338 7 -13 15 -22 17 -19 7 6 17 75 16 106
0 13 6 30 13 37 7 7 13 31 13 53 0 23 4 45 7 51 3 5 11 36 16 67 6 32 15 81
20 108 5 28 11 79 14 115 3 36 10 79 15 95 5 17 19 92 30 168 11 76 25 147 30
157 6 11 9 23 8 27 -2 12 12 105 22 136 l9 27 -113 0 -113 0 -6 -62z"/>
<path d="M9946 15963 c-4 -21 -20 -155 -36 -298 -34 -292 -44 -379 -65 -545
-17 -131 -19 -204 -6 -195 11 6 25 -31 16 -45 -6 -10 -17 -117 -16 -165 0 -23
-2 -26 -9 -15 -8 12 -10 9 -10 -12 0 -14 6 -29 13 -32 8 -4 8 -8 1 -11 -7 -4
-8 -24 -1 -65 5 -32 6 -67 3 -77 -11 -28 -14 -139 -6 -175 4 -18 8 -27 9 -20
1 6 7 12 15 12 7 0 16 13 19 28 3 16 16 33 29 40 22 10 22 11 -9 11 -18 1 -33
5 -33 9 0 14 45 52 62 52 9 0 18 11 21 28 29 146 37 193 37 227 0 22 7 51 16
63 8 12 10 22 5 22 -7 0 -7 9 0 28 9 24 13 49 23 162 2 14 5 32 9 40 10 27 28
137 31 198 3 33 9 69 15 80 6 11 10 32 10 48 0 16 5 54 11 84 6 30 14 73 16
95 10 86 24 179 30 199 9 26 21 114 33 249 1 4 6 7 12 7 9 0 10 -33 5 -122 -4
-68 -9 -244 -12 -393 -2 -148 -6 -286 -9 -305 -11 -71 -17 -210 -8 -210 5 0 8
-20 8 -44 0 -24 -3 -42 -7 -39 -10 5 -10 -29 -2 -91 7 -52 24 -63 24 -15 0 17
5 40 12 52 6 12 13 42 15 67 6 71 8 84 15 96 4 5 10 35 13 65 14 125 28 195
43 219 10 15 15 49 16 95 1 38 3 72 6 75 10 10 30 77 30 102 0 14 9 79 20 145
11 65 25 150 30 188 5 39 12 82 16 98 l6 27 -230 0 -230 0 -6 -37z"/>
<path d="M10427 15903 c-4 -54 -7 -126 -7 -160 0 -35 -3 -63 -7 -63 -10 0 -10
-10 -17 -235 -2 -99 -7 -209 -11 -245 -3 -36 -7 -123 -9 -195 -2 -71 -7 -147
-11 -167 -6 -31 -4 -38 9 -38 9 0 16 8 17 18 0 14 2 14 9 -3 7 -16 9 -13 9 17
1 20 6 40 12 44 7 4 9 22 6 45 -3 22 -1 39 3 39 12 0 34 115 45 235 4 33 10
62 14 65 4 3 11 37 15 75 4 39 11 74 17 79 5 6 9 29 9 53 0 24 7 60 15 80 8
19 15 50 15 68 0 17 3 35 8 39 4 4 7 20 8 34 1 15 10 74 22 132 11 58 23 122
27 143 l6 37 -99 0 -99 0 -6 -97z"/>
<path d="M10645 15943 c-4 -32 -9 -69 -10 -83 -2 -14 -8 -63 -14 -110 -6 -47
-13 -105 -16 -130 -2 -25 -12 -97 -21 -160 -10 -63 -18 -143 -18 -177 0 -34
-4 -59 -7 -57 -9 5 -15 -35 -29 -176 -6 -58 -15 -118 -20 -135 -8 -27 -17 -92
-25 -183 -2 -18 -6 -45 -9 -60 -4 -15 -10 -58 -16 -97 -5 -38 -20 -146 -34
-239 -24 -164 -26 -197 -6 -166 9 13 10 13 11 0 2 -34 28 50 34 110 3 36 10
74 15 85 5 11 16 52 25 90 16 66 20 87 44 211 5 28 14 69 20 90 6 21 24 103
41 181 16 78 34 153 39 166 5 13 10 41 12 63 1 21 8 50 15 64 6 14 15 50 19
80 4 30 16 89 27 130 23 85 42 170 63 280 8 41 22 107 30 145 9 39 19 85 22
103 l5 32 -95 0 -96 0 -6 -57z"/>
<path d="M10866 15978 c-3 -13 -10 -63 -16 -113 -17 -126 -18 -132 -29 -205
-6 -36 -15 -85 -20 -110 -14 -64 -14 -113 1 -104 12 8 8 -30 -13 -131 -6 -27
-13 -95 -16 -150 -3 -55 -8 -104 -13 -110 -4 -5 -8 -32 -8 -60 -2 -71 -12
-136 -25 -163 -9 -18 -8 -25 2 -31 9 -6 10 -14 3 -27 -5 -11 -15 -80 -21 -154
-7 -74 -19 -173 -27 -220 -7 -47 -14 -118 -14 -158 0 -42 -6 -85 -14 -100 -12
-24 -25 -110 -31 -202 -2 -31 -6 -36 -36 -41 -19 -4 22 -6 91 -6 69 0 115 2
102 4 -14 3 -20 9 -15 16 8 13 21 93 28 177 7 71 9 82 19 99 5 8 4 16 -5 21
-9 6 -10 12 -2 22 6 7 14 40 18 73 4 33 13 78 21 100 7 22 14 55 14 73 0 18 5
42 10 52 6 11 11 49 12 85 2 39 7 66 14 69 7 3 10 13 7 24 -5 20 31 202 46
231 5 9 7 42 5 74 -2 35 1 55 6 52 6 -4 10 2 10 12 0 11 5 24 11 30 5 5 12 32
15 59 9 99 12 119 17 134 3 8 8 38 11 65 2 28 7 66 10 85 22 139 28 179 36
205 8 28 17 88 24 160 1 17 6 39 9 50 3 11 9 36 12 55 14 79 17 35 10 -120
-12 -270 -13 -284 -19 -310 -12 -50 -31 -538 -21 -528 24 23 75 227 101 403 4
29 33 178 54 275 5 25 12 66 16 93 3 26 10 50 15 53 5 3 9 24 9 47 0 23 4 58
9 77 5 19 12 47 15 63 l6 27 -220 0 -220 0 -4 -22z"/>
<path d="M11330 15968 c0 -18 -5 -51 -10 -73 -5 -23 -16 -104 -25 -180 -9 -77
-20 -174 -25 -215 -5 -41 -12 -106 -15 -143 -2 -38 -10 -98 -16 -133 -6 -36
-9 -76 -6 -90 2 -14 -2 -71 -9 -127 -8 -56 -18 -154 -24 -217 -5 -63 -14 -146
-19 -185 -14 -90 -14 -88 4 -81 10 3 15 -1 15 -12 1 -15 2 -15 15 2 8 11 15
29 15 40 0 11 7 27 15 36 8 9 21 50 29 91 24 124 35 168 46 190 7 11 9 28 6
36 -4 9 -1 22 5 29 6 7 8 18 5 23 -4 5 -1 13 4 16 6 4 11 19 10 33 -4 53 0 78
9 64 6 -10 10 -6 14 15 3 15 1 29 -3 31 -6 2 -6 11 -1 20 8 14 32 114 36 147
3 23 17 92 25 120 5 17 12 53 15 80 3 28 11 81 19 120 8 38 12 73 10 77 -2 3
0 10 6 13 6 4 8 15 5 25 -3 10 1 37 10 61 8 24 15 58 16 74 l1 30 8 -30 8 -30
2 35 c2 19 3 40 3 47 0 6 5 14 12 17 13 5 13 -21 -1 -66 -3 -10 -1 -18 4 -18
6 0 13 18 16 40 3 22 9 58 12 80 5 35 3 40 -14 40 -15 0 -22 -8 -25 -27 l-4
-28 -2 28 -1 27 -100 0 -100 0 0 -32z"/>
<path d="M11783 15944 c-2 -55 -21 -100 -51 -118 -11 -6 -9 -10 9 -20 16 -8
23 -19 21 -32 -2 -10 -4 -45 -5 -76 -1 -46 -4 -58 -17 -58 -13 0 -16 -18 -17
-117 -2 -129 -5 -155 -15 -163 -3 -3 -8 -25 -10 -50 -1 -25 -10 -50 -18 -56
-11 -10 -12 -15 -2 -27 7 -8 10 -21 8 -28 -3 -8 -7 -43 -10 -79 -2 -36 -7 -74
-12 -84 -5 -14 -4 -17 4 -12 18 11 15 -17 -9 -76 -11 -28 -19 -67 -17 -85 1
-21 -3 -37 -11 -42 -10 -7 -12 -21 -6 -56 5 -39 4 -47 -7 -42 -11 4 -14 -5
-14 -33 1 -21 4 -42 8 -46 4 -4 3 -12 -2 -19 -12 -15 -40 -158 -40 -208 0 -21
-5 -47 -10 -57 -6 -10 -12 -41 -15 -67 -8 -83 -17 -133 -24 -133 -3 0 -6 -26
-6 -57 0 -32 -4 -74 -8 -93 -5 -19 -11 -51 -14 -70 -3 -19 -13 -40 -21 -46
-12 -9 -8 -12 22 -17 53 -8 65 -1 59 35 -3 17 0 41 6 52 9 20 27 112 67 356
14 89 21 108 43 127 l25 22 -23 -6 c-21 -5 -23 -3 -18 18 3 13 11 60 18 104
14 93 22 113 52 126 21 9 21 9 -4 6 -26 -4 -26 -3 -17 47 15 93 31 171 37 181
3 5 4 21 3 35 -3 29 34 210 45 221 5 4 21 11 37 15 21 5 27 4 22 -5 -9 -14
-43 -207 -51 -281 -2 -30 -8 -71 -12 -90 -3 -19 -6 -38 -5 -42 1 -4 -3 -20 -9
-35 -7 -15 -11 -41 -10 -58 2 -37 -30 -225 -39 -225 -3 0 -6 -21 -8 -47 -2
-66 -22 -186 -33 -199 -5 -6 -6 -13 -3 -17 9 -9 -27 -221 -39 -229 -7 -4 -7
-11 2 -22 8 -9 9 -16 4 -16 -5 0 -9 -8 -9 -17 0 -10 -4 -28 -8 -41 -7 -21 -5
-23 20 -20 23 2 29 9 31 29 1 14 11 77 24 140 12 62 22 131 22 152 1 20 4 37
7 37 6 0 33 169 34 215 1 11 5 26 9 33 5 7 11 43 13 80 2 37 9 82 15 100 6 18
8 39 5 47 -3 8 4 21 15 29 13 8 16 15 9 18 -9 3 -8 31 5 113 10 61 22 115 27
122 6 7 7 16 4 22 -3 5 3 60 15 123 11 62 23 129 25 148 19 155 41 230 69 230
7 0 17 5 20 10 4 7 -2 9 -19 4 -26 -6 -27 -6 -20 37 3 24 13 73 21 109 8 36
17 125 20 198 l4 132 -108 0 -108 0 -2 -56z"/>
<path d="M1740 14193 c-63 -21 -132 -73 -129 -97 0 -5 -4 -12 -10 -16 -6 -3
-13 -38 -16 -76 -2 -38 -2 -55 1 -39 12 81 16 95 26 95 6 0 8 -13 6 -31 -4
-28 -3 -30 21 -24 20 4 22 3 11 -5 -8 -5 -24 -10 -35 -10 -19 -1 -19 -1 2 -13
12 -7 21 -16 20 -21 -3 -15 54 -27 98 -21 l41 6 2 69 c3 58 1 70 -13 70 -12 0
-14 6 -9 25 7 27 3 28 -68 8 -14 -3 -16 0 -11 14 6 16 5 17 -11 4 -17 -14 -17
-16 1 -29 17 -13 16 -14 -6 -7 -16 5 -21 4 -17 -4 5 -7 1 -9 -9 -5 -14 6 -14
9 2 28 10 11 19 22 19 24 1 2 8 4 16 5 7 2 24 10 38 20 20 14 46 17 134 17 60
0 107 2 105 4 -7 6 -193 15 -209 9z"/>
<path d="M2090 14133 c0 -52 23 -402 40 -598 5 -66 19 -257 30 -425 28 -416
27 -410 50 -410 18 0 19 6 14 78 -2 42 -13 244 -24 447 -32 610 -51 929 -55
943 -2 6 -16 12 -30 12 -23 0 -25 -3 -25 -47z"/>
<path d="M2305 14151 c29 -6 30 -9 32 -61 1 -30 7 -134 13 -230 5 -96 12 -229
15 -295 3 -66 7 -145 10 -175 2 -30 7 -109 10 -175 6 -129 13 -268 20 -380 2
-38 7 -129 11 -202 l7 -132 -109 -3 -109 -3 3 -25 c2 -14 5 -26 7 -28 1 -1 60
-5 130 -7 70 -2 130 -7 133 -10 3 -3 13 -5 23 -5 23 0 25 -9 39 -180 20 -263
41 -474 50 -515 5 -22 10 -55 10 -72 0 -33 0 -33 50 -33 57 0 55 -9 35 120
-27 174 -11 176 20 2 17 -93 35 -135 52 -118 3 3 1 43 -6 88 -6 46 -14 110
-16 143 -3 33 -8 71 -10 85 l-6 26 79 -7 c44 -4 89 -10 101 -14 20 -6 22 -4
19 17 -3 22 -5 23 -101 22 -91 -1 -98 0 -102 20 -16 80 -42 477 -70 1101 -12
273 -26 502 -58 1000 l-3 40 -54 7 c-71 8 -265 8 -225 -1z m348 -1953 c4 -24
9 -88 12 -143 3 -55 8 -118 11 -140 4 -30 2 -36 -5 -25 -6 8 -11 27 -11 42 0
15 -5 30 -11 34 -9 5 -10 -14 -5 -72 7 -79 21 -185 32 -236 4 -21 2 -28 -10
-28 -9 0 -16 8 -17 18 0 9 -6 89 -13 177 -10 132 -10 161 1 168 11 7 11 13 0
40 -7 18 -12 50 -11 72 2 23 -2 43 -9 47 -9 6 -9 8 0 8 7 0 10 7 7 15 -4 8 -1
15 5 15 7 0 9 9 5 25 -3 14 -2 25 4 25 5 0 12 -19 15 -42z"/>
<path d="M2938 14113 l32 -4 0 -59 0 -58 135 -1 135 -2 -3 58 -2 58 -85 7
c-91 6 -267 8 -212 1z"/>
<path d="M2963 13938 c3 -18 9 -143 12 -278 13 -564 26 -1029 30 -1089 2 -35
-1 -73 -6 -84 -8 -15 -8 -18 1 -12 14 8 11 -54 -9 -199 -13 -90 -11 -141 7
-208 10 -40 3 -49 -18 -23 -7 8 -19 15 -26 15 -8 0 -14 4 -14 8 0 4 -9 8 -20
9 -11 1 -20 -1 -20 -5 0 -21 32 -108 44 -121 8 -9 15 -20 16 -26 3 -32 26 -87
42 -101 13 -13 18 -31 18 -68 -1 -45 -2 -49 -14 -33 -15 19 -26 22 -26 7 0 -5
11 -33 24 -62 13 -29 33 -89 44 -133 11 -44 29 -113 41 -152 13 -46 21 -101
21 -149 0 -71 -3 -84 -45 -168 -25 -50 -51 -101 -59 -114 -19 -32 -54 -55 -75
-49 -14 3 -17 -1 -13 -18 4 -22 -20 -41 -39 -29 -5 3 -9 -3 -10 -13 0 -14 -3
-12 -10 6 -10 25 5 46 25 34 5 -3 6 -1 2 6 -4 6 -17 9 -29 7 -13 -4 -10 0 8 9
17 8 48 18 70 22 33 6 36 8 17 12 -33 8 -346 -10 -607 -35 -82 -7 -156 -14
-163 -14 -22 0 -258 510 -317 685 -14 44 -33 94 -40 110 -7 17 -23 55 -36 85
-13 30 -32 71 -42 90 l-18 35 5 -95 c3 -52 13 -185 21 -295 9 -110 20 -270 25
-355 5 -85 13 -190 16 -232 4 -51 3 -78 -4 -78 -10 0 -17 51 -27 200 -3 47
-14 225 -26 395 -35 542 -28 484 -63 520 -29 30 -40 33 -199 59 -242 40 -380
73 -395 93 -27 38 -106 113 -118 113 -23 0 -62 -44 -68 -77 -4 -27 0 -39 24
-67 40 -45 79 -133 145 -324 29 -86 63 -182 76 -212 30 -77 47 -243 20 -203
-8 13 -181 114 -181 107 0 -9 196 -488 264 -647 13 -29 14 -38 4 -41 -7 -2
-94 -21 -193 -41 -188 -38 -225 -52 -225 -85 0 -11 -5 -29 -12 -39 -10 -16 -6
-33 24 -98 35 -76 58 -156 97 -335 l19 -88 -28 0 c-20 0 -27 5 -26 17 1 12 -8
18 -33 20 -41 4 -55 13 -19 13 14 0 29 7 32 16 9 23 7 28 -6 17 -7 -6 -30 -16
-50 -22 -31 -10 -39 -10 -56 5 -11 9 -35 19 -52 21 -34 3 -33 -4 3 -44 l20
-23 -86 0 c-53 0 -88 4 -93 11 -5 8 3 10 28 5 43 -8 52 0 29 25 -16 17 -27 19
-87 13 -38 -3 -70 -10 -72 -15 -6 -16 -38 -10 -75 15 -19 13 -48 27 -64 30
-24 6 -32 15 -48 62 -21 63 -33 75 -83 84 -22 4 16 7 92 8 137 1 168 10 117
33 -20 9 -35 25 -42 46 -6 18 -16 36 -24 40 -7 5 -15 36 -19 73 -15 156 -24
329 -20 375 4 37 3 46 -5 35 -8 -12 -11 -5 -13 30 -4 83 -5 105 -8 110 -1 3
-4 41 -6 85 -1 44 -7 103 -13 130 -5 28 -15 104 -21 170 -15 162 -19 200 -32
270 -5 33 -14 85 -19 115 -5 30 -11 66 -13 80 -3 14 -9 72 -15 130 -22 233
-33 325 -41 335 -8 11 -20 93 -24 170 -3 57 -15 115 -26 130 -4 6 -10 56 -14
112 -4 77 -11 111 -26 135 l-20 33 0 -706 c0 -548 3 -708 12 -717 10 -10 10
-15 -1 -21 -10 -6 -11 -24 -7 -67 3 -33 8 -77 10 -99 2 -22 7 -66 11 -97 6
-42 5 -58 -4 -58 -8 0 -7 -9 3 -29 8 -15 15 -37 15 -47 1 -39 9 -95 14 -101 4
-3 2 -14 -3 -24 -6 -10 -6 -20 -1 -23 4 -3 6 -23 4 -45 -2 -22 1 -42 7 -46 5
-3 10 -23 10 -44 0 -20 6 -46 14 -56 9 -13 11 -29 5 -54 -13 -56 -10 -110 7
-136 9 -14 14 -35 11 -47 -3 -14 3 -40 16 -64 12 -23 31 -59 42 -80 11 -22 24
-42 30 -46 5 -4 -3 -12 -19 -18 -15 -5 -30 -19 -33 -29 -3 -13 -10 -18 -21
-13 -11 4 -8 -3 8 -21 14 -14 26 -31 26 -36 1 -6 2 -15 3 -21 0 -5 7 -10 15
-10 14 0 46 -57 46 -83 0 -9 6 -18 13 -20 7 -3 4 -6 -7 -6 -10 -1 -27 10 -38
24 -11 14 -26 25 -35 25 -21 0 -11 -23 18 -37 22 -12 21 -13 -21 -13 -25 0
-50 4 -56 8 -6 4 -14 34 -18 67 -10 79 -26 135 -41 135 -6 0 -10 -14 -10 -32
2 -45 25 -150 37 -165 7 -9 0 -14 -26 -19 -28 -5 -36 -11 -36 -28 0 -21 1 -21
288 -23 251 -2 667 -24 679 -37 3 -2 40 -157 83 -343 82 -356 100 -428 210
-849 65 -247 68 -264 60 -325 -13 -94 -18 -104 -53 -115 -31 -9 -32 -10 -32
-73 l0 -63 -43 -2 c-36 -2 -50 -10 -92 -51 -70 -69 -77 -138 -19 -191 13 -12
16 -21 9 -29 -11 -13 27 -25 81 -25 26 0 29 -4 29 -30 0 -17 7 -47 15 -67 8
-19 15 -53 15 -75 0 -27 15 -71 45 -133 40 -83 49 -95 80 -105 19 -6 35 -16
35 -20 0 -5 19 -32 43 -59 173 -203 162 -177 161 -376 -1 -93 -7 -228 -14
-300 l-12 -130 -39 -36 c-31 -28 -39 -43 -39 -70 0 -42 55 -128 96 -149 61
-32 299 -162 303 -166 3 -2 -1 -10 -7 -16 -7 -7 -12 -18 -12 -25 0 -12 106
-97 132 -105 9 -3 15 -34 19 -89 5 -74 3 -89 -18 -131 -13 -26 -23 -60 -23
-76 0 -41 27 -125 49 -153 20 -26 20 -25 47 -409 15 -216 16 -226 40 -247 20
-19 24 -31 24 -84 0 -62 1 -63 48 -107 46 -44 128 -92 155 -92 11 0 14 -20 15
-89 1 -71 5 -98 22 -132 15 -29 20 -53 17 -75 -4 -24 0 -40 15 -59 l20 -25
146 3 c118 3 156 8 192 24 l45 19 110 -112 c127 -130 133 -107 -45 -179 -58
-24 -161 -66 -230 -94 -69 -29 -217 -90 -330 -136 -113 -46 -275 -112 -360
-148 -685 -286 -710 -297 -727 -318 -7 -9 -13 -54 -15 -105 l-3 -89 -27 3
c-32 3 -140 -23 -180 -44 -95 -49 -148 -139 -147 -249 0 -110 29 -318 47 -353
11 -20 18 -22 60 -17 26 3 70 8 97 11 57 6 220 47 292 73 l48 17 0 52 c0 29 3
52 8 52 4 0 7 5 7 11 0 5 -3 8 -8 6 -8 -6 -17 111 -14 183 6 153 14 210 30
219 9 4 105 38 212 74 107 37 321 110 475 163 154 52 300 102 325 109 91 28
736 245 755 255 28 13 146 50 159 50 24 -1 -27 -21 -185 -74 -292 -97 -404
-137 -414 -147 -5 -6 -4 -9 4 -9 7 0 10 -4 7 -9 -3 -5 10 -28 29 -51 19 -23
35 -49 35 -57 0 -8 7 -27 15 -41 24 -44 55 -134 49 -144 -4 -5 3 -19 14 -31
11 -12 23 -35 27 -52 6 -29 6 -29 -9 -11 -9 11 -16 23 -16 28 0 13 -20 9 -36
-7 -9 -8 -11 -15 -5 -15 6 0 11 -4 11 -10 0 -5 -9 -10 -20 -10 -15 0 -20 -7
-20 -25 0 -18 5 -25 20 -25 28 0 25 -14 -5 -28 -14 -6 -25 -16 -25 -22 0 -15
17 -12 24 5 3 8 15 15 26 15 11 0 23 -7 26 -15 4 -8 12 -15 20 -15 19 0 18 -6
-6 -30 -22 -22 -19 -43 5 -33 8 3 15 0 15 -6 0 -6 -9 -11 -19 -11 -11 0 -22
-4 -25 -9 -3 -5 -18 -12 -33 -16 -15 -3 -33 -15 -41 -26 -7 -11 -19 -16 -25
-12 -7 4 -6 0 2 -10 9 -11 10 -17 2 -17 -6 0 -11 -7 -11 -15 0 -8 -9 -15 -20
-15 -11 0 -20 4 -20 9 0 18 -52 22 -76 6 -13 -8 -45 -15 -71 -15 -42 -1 -46
-2 -30 -14 9 -7 17 -21 17 -31 0 -14 -3 -15 -15 -5 -12 10 -18 10 -32 -1 -13
-11 -17 -11 -20 -1 -7 19 -23 14 -23 -7 0 -11 -5 -23 -10 -26 -6 -3 -10 -1
-10 4 0 6 -11 11 -25 11 -15 0 -25 -6 -25 -14 0 -22 -13 -27 -82 -30 -34 -2
-64 -8 -65 -13 -2 -6 -13 -9 -23 -6 -11 3 -20 0 -20 -6 0 -6 7 -11 15 -11 9 0
18 -7 22 -16 3 -8 12 -13 19 -10 8 3 27 1 42 -5 l27 -11 -25 -14 -25 -14 30 6
c17 3 40 10 52 16 18 9 27 8 42 -7 21 -18 71 -15 71 5 0 6 16 10 35 10 19 0
35 -5 35 -11 0 -6 -7 -9 -15 -5 -9 3 -15 0 -15 -8 0 -9 8 -12 24 -9 15 3 30
-2 43 -16 11 -12 41 -25 67 -30 49 -9 69 -21 49 -28 -21 -8 -15 -22 7 -16 11
3 20 0 20 -6 0 -6 5 -11 10 -11 6 0 10 9 10 20 0 11 6 20 13 20 9 0 9 3 -1 9
-22 13 -10 44 20 52 25 6 27 5 18 -11 -15 -28 -12 -40 11 -40 13 0 18 4 13 12
-5 8 2 9 25 5 18 -4 40 -2 50 5 16 10 25 6 59 -30 22 -23 48 -42 57 -42 11 0
15 -5 11 -15 -3 -10 1 -15 12 -15 10 0 28 -9 40 -20 12 -11 33 -25 47 -30 26
-10 29 -14 39 -62 3 -15 19 -34 34 -43 15 -10 34 -31 41 -47 8 -17 22 -39 33
-50 14 -14 15 -18 3 -18 -8 0 -15 -5 -15 -11 0 -7 9 -9 21 -6 16 4 23 0 26
-14 4 -14 12 -19 24 -16 10 3 20 -1 23 -9 3 -8 13 -14 22 -14 13 0 14 -3 4
-15 -10 -12 -10 -18 0 -30 11 -13 15 -13 21 -3 6 9 9 9 9 1 0 -6 -4 -15 -10
-18 -18 -11 -10 -22 20 -29 21 -4 30 -11 30 -25 0 -12 12 -24 30 -33 17 -7 30
-18 30 -25 0 -6 12 -21 26 -32 l26 -20 -29 -6 c-95 -22 -154 -49 -204 -97 -71
-67 -83 -118 -94 -413 -4 -99 -2 -129 13 -170 15 -41 24 -51 48 -56 99 -22
397 11 468 51 21 11 41 19 44 16 9 -10 30 43 25 64 -3 11 -1 20 4 20 18 0 46
-39 39 -55 -3 -9 3 -24 16 -37 l21 -21 -6 21 c-4 12 -9 32 -12 45 l-6 22 10
-23 c6 -12 15 -22 21 -22 5 0 10 -11 10 -23 0 -13 9 -32 20 -42 11 -10 20 -23
19 -29 -3 -27 2 -46 12 -46 5 0 7 5 4 10 -3 6 -1 10 5 10 17 0 24 -31 9 -41
-11 -7 -9 -9 8 -9 12 0 25 -4 28 -10 3 -5 2 -10 -4 -10 -5 0 0 -18 10 -40 11
-23 17 -45 14 -50 -7 -11 23 -45 39 -45 6 0 11 -14 11 -32 0 -17 3 -35 8 -39
4 -4 7 -18 7 -31 0 -13 7 -26 15 -29 8 -4 15 -11 15 -18 0 -6 14 -24 31 -39
17 -14 28 -31 24 -37 -4 -6 5 -20 19 -31 14 -11 26 -26 26 -32 0 -7 14 -21 30
-32 28 -18 36 -41 31 -82 -1 -7 3 -13 10 -13 6 0 9 -7 5 -15 -3 -8 0 -15 6
-15 18 0 37 -33 38 -67 0 -26 3 -31 17 -26 13 5 15 2 9 -12 -7 -19 -3 -25 62
-91 22 -23 43 -55 47 -72 3 -18 11 -34 16 -38 5 -3 17 -23 25 -44 9 -21 26
-47 40 -57 13 -10 24 -25 24 -33 0 -34 22 -40 156 -40 l131 0 10 43 11 42 1
-42 1 -43 69 0 c46 0 71 4 74 13 4 9 6 9 6 0 1 -10 121 -13 566 -13 619 0 591
-3 540 58 -13 16 -22 32 -18 35 3 4 1 12 -5 20 -6 7 -14 28 -17 46 -7 39 -44
115 -52 107 -3 -3 0 -19 7 -37 15 -36 15 -101 0 -130 -17 -31 -29 -22 -23 16
8 51 -21 120 -63 149 -34 23 -34 23 -14 44 19 21 19 21 -13 48 -17 15 -44 31
-59 36 -31 11 -42 32 -28 56 46 84 63 162 35 162 -8 0 -15 5 -15 10 0 6 5 10
10 10 6 0 10 21 10 46 0 25 5 54 11 66 21 39 14 121 -14 165 -29 46 -51 65
-40 36 5 -14 1 -13 -20 6 -15 14 -27 29 -27 35 0 13 -72 62 -147 100 -31 15
-53 33 -53 42 0 9 20 55 44 103 76 150 99 224 100 326 1 76 -1 90 -15 88 -19
-4 -64 83 -46 90 9 3 9 8 -1 18 -10 11 -14 11 -21 1 -12 -20 -63 35 -52 56 7
12 -2 28 -34 61 -84 90 -144 169 -147 195 -2 14 -6 27 -9 30 -8 9 1 229 10
240 15 18 38 138 35 186 -4 61 -14 103 -29 115 -6 6 -15 24 -18 40 -3 17 -10
48 -17 70 -6 22 -12 47 -14 55 -1 8 -5 22 -8 30 -15 37 -17 50 -8 50 5 0 7 7
3 15 -3 10 -1 15 7 13 7 -2 15 3 17 10 3 7 -3 11 -14 10 -34 -3 -53 2 -53 13
0 7 11 9 26 6 19 -3 28 0 31 12 3 12 15 17 38 18 37 1 56 -22 24 -30 -10 -3
-19 -11 -19 -17 0 -7 7 -10 16 -6 9 3 20 6 25 6 12 0 11 57 -1 81 -6 10 -18
19 -26 19 -8 0 -12 5 -9 10 4 6 11 8 16 4 17 -10 39 17 39 47 0 24 4 29 24 29
14 0 28 -4 31 -10 3 -5 30 -10 58 -10 36 0 66 -8 99 -25 26 -14 57 -25 69 -25
12 0 19 -3 16 -6 -3 -4 -2 -15 4 -25 7 -15 6 -19 -6 -19 -8 0 -15 -6 -16 -12
0 -7 -2 -23 -3 -36 -2 -14 2 -21 9 -18 12 4 46 -28 49 -48 5 -29 91 -106 135
-121 54 -18 173 -34 252 -35 59 0 69 -7 69 -51 0 -12 7 -19 19 -19 19 0 19 1
-1 42 -24 50 -21 122 10 189 l20 44 1 -42 c1 -57 15 -84 59 -113 20 -14 60
-46 87 -71 52 -47 145 -102 250 -145 146 -60 346 -184 520 -323 259 -206 477
-334 695 -407 111 -38 120 -39 248 -39 l133 0 -38 -33 c-52 -44 -117 -62 -250
-69 -118 -6 -168 1 -125 18 40 15 19 32 -89 69 -116 40 -219 94 -323 169 -39
28 -72 49 -74 46 -7 -6 19 -65 27 -61 3 2 7 -10 8 -27 l2 -30 -34 34 c-19 19
-50 59 -67 89 -45 77 -140 202 -180 235 -81 68 -199 96 -255 60 -15 -11 -35
-20 -43 -21 -8 -1 -27 -4 -41 -8 -19 -6 -28 -3 -32 8 -4 10 -18 16 -35 16 -16
0 -50 6 -76 14 -27 8 -55 12 -64 9 -13 -4 -14 -3 -4 5 10 7 -8 20 -65 49 -43
22 -94 46 -115 52 -69 23 -157 134 -144 185 5 20 4 20 -9 3 -17 -23 -24 -11
-32 53 -9 80 -26 48 -20 -40 9 -140 65 -216 216 -294 141 -72 262 -110 361
-112 101 -3 171 -19 220 -48 19 -12 60 -33 90 -45 73 -31 69 -28 224 -178 132
-129 138 -133 269 -197 73 -36 151 -69 172 -75 22 -5 75 -19 119 -30 94 -25
315 -40 349 -23 12 6 39 13 60 17 20 3 37 12 37 19 0 7 14 25 31 42 46 43 87
144 60 144 -5 0 1 27 15 60 32 80 31 131 -5 205 -29 60 -157 222 -189 239 -33
17 -92 80 -92 99 0 10 -5 15 -10 12 -6 -3 -13 1 -16 9 -3 9 -12 16 -19 16 -8
0 -27 11 -43 25 -17 14 -34 25 -40 25 -5 0 -24 17 -41 37 -56 69 -61 73 -82
73 -22 0 -124 78 -114 88 3 3 11 0 17 -6 17 -17 55 -15 61 2 7 18 -41 86 -80
114 -15 11 -84 47 -153 80 -85 41 -147 79 -193 119 l-68 58 6 47 c5 39 2 49
-15 61 l-20 14 21 94 c16 70 44 140 111 277 97 200 158 336 177 395 11 33 34
49 43 29 3 -9 151 -141 512 -461 341 -301 368 -325 380 -336 6 -6 27 -23 46
-39 19 -15 73 -63 120 -106 47 -42 148 -133 225 -201 77 -68 154 -136 170
-150 208 -184 401 -356 475 -424 30 -27 91 -82 135 -121 158 -141 472 -422
634 -569 92 -82 227 -204 301 -270 74 -66 147 -131 161 -145 14 -14 57 -52 95
-85 38 -33 94 -83 124 -111 30 -27 75 -68 100 -91 25 -22 163 -147 308 -277
145 -130 267 -234 272 -231 6 4 10 12 10 19 0 14 35 126 95 306 19 58 34 94
31 80 -6 -39 -117 -414 -126 -425 -4 -5 -10 -21 -13 -35 -3 -14 -21 -85 -41
-158 -20 -73 -36 -144 -36 -158 l0 -24 115 0 115 0 0 1251 c0 911 -3 1256 -11
1265 -9 10 -9 14 0 14 6 0 11 7 11 15 0 8 -4 15 -10 15 -5 0 -10 -4 -10 -9 0
-4 -16 -11 -35 -14 -38 -6 -98 10 -90 24 3 4 17 4 31 -1 14 -6 35 -10 46 -10
19 0 19 2 -6 21 -19 15 -40 20 -81 20 -30 0 -55 5 -55 10 0 5 5 9 10 9 6 0 10
9 10 20 0 14 -7 20 -21 20 -11 0 -17 -4 -14 -10 3 -5 -1 -20 -10 -32 -17 -23
-17 -23 -11 -1 6 18 1 24 -28 34 -38 14 -38 25 2 41 26 10 26 10 6 18 -12 5
-25 13 -29 19 -3 6 -10 9 -15 6 -4 -3 -13 2 -20 10 -14 17 -50 20 -50 5 0 -5
21 -15 46 -21 34 -9 42 -14 33 -23 -8 -8 -13 -8 -16 2 -3 6 -14 12 -25 12 -17
0 -18 -2 -8 -15 7 -9 10 -18 7 -21 -11 -11 -57 6 -57 21 0 8 -5 15 -11 15 -8
0 -8 5 1 15 10 13 7 17 -23 30 -20 8 -43 15 -51 15 -23 0 -28 18 -9 29 16 9
16 10 -4 11 -13 0 -23 5 -23 10 0 6 18 10 40 10 22 0 40 3 40 8 -1 11 -51 45
-57 38 -4 -3 -1 -6 5 -6 7 0 12 -4 12 -9 0 -12 -68 15 -87 35 -13 12 -12 15 1
20 9 3 16 10 16 15 0 11 -48 11 -75 0 -11 -5 -25 -4 -32 1 -22 18 -14 29 15
22 18 -4 23 -3 14 4 -8 5 -14 13 -14 18 1 5 -6 8 -15 6 -11 -3 -13 2 -8 19 6
19 4 21 -14 16 -11 -3 -21 -1 -21 4 0 5 6 9 14 9 8 0 18 5 22 11 5 8 -1 10
-19 5 -32 -8 -40 4 -42 67 -1 35 3 54 15 66 9 9 20 24 23 34 7 19 71 25 82 7
3 -5 1 -10 -6 -10 -8 0 -8 -4 1 -15 7 -8 21 -15 31 -15 21 0 23 -8 10 -29 -5
-8 -16 -11 -25 -8 -24 9 -20 -16 7 -39 13 -11 28 -19 35 -16 17 5 72 -21 72
-35 0 -6 -6 -14 -12 -16 -10 -4 -9 -8 2 -16 11 -8 16 -7 18 4 4 16 62 9 74 -9
5 -7 8 -4 8 7 0 9 7 17 16 17 8 0 12 -4 9 -10 -3 -5 1 -10 9 -10 8 0 20 8 25
18 10 16 10 16 11 0 0 -12 8 -18 22 -18 20 0 20 -1 5 -18 -10 -10 -17 -24 -17
-31 0 -7 -5 -9 -12 -5 -7 4 -8 3 -4 -4 4 -6 13 -9 21 -5 10 3 15 -1 15 -14 0
-10 9 -24 20 -30 16 -11 18 -10 14 2 -9 21 10 18 31 -5 10 -11 27 -22 38 -26
12 -4 27 -13 35 -20 7 -8 23 -14 35 -14 12 0 31 -7 41 -15 11 -8 32 -15 48
-15 l28 0 0 685 0 684 -42 -18 c-105 -46 -367 -164 -649 -291 -310 -141 -368
-160 -443 -146 -20 4 -49 18 -66 32 -16 14 -30 22 -30 17 0 -25 95 -73 146
-73 17 0 22 -5 19 -20 -2 -11 2 -20 8 -20 7 -1 1 -7 -12 -14 -17 -10 -20 -15
-10 -18 8 -3 21 -2 30 3 11 6 21 4 29 -6 7 -9 8 -15 2 -15 -5 0 -13 -25 -17
-55 -3 -30 -10 -53 -15 -50 -5 3 -11 1 -15 -5 -4 -6 -16 -4 -31 7 -25 16 -25
17 -6 27 15 9 18 16 11 34 -5 12 -12 22 -16 23 -65 8 -93 7 -93 -4 0 -7 -3 -8
-8 -2 -9 12 -62 17 -62 6 0 -5 20 -14 45 -20 25 -6 45 -16 45 -22 0 -6 10 -9
23 -7 15 2 21 9 19 20 -3 20 6 22 28 8 13 -8 13 -11 -3 -22 -16 -12 -17 -16
-2 -45 12 -23 20 -30 35 -26 12 3 20 0 20 -7 0 -13 -27 -11 -105 6 l-30 7 28
-27 c20 -19 35 -25 50 -21 15 4 18 3 9 -3 -10 -7 -8 -15 9 -36 l22 -28 -34 4
c-19 2 -39 9 -45 17 -9 11 -14 11 -32 0 -12 -8 -22 -19 -22 -25 0 -7 -9 -10
-22 -6 -14 3 -19 2 -14 -6 4 -7 2 -12 -4 -12 -6 0 -13 7 -17 16 -5 13 -7 13
-14 2 -7 -10 -9 -9 -9 5 0 9 -7 17 -16 17 -8 0 -13 4 -9 9 7 12 46 11 63 -2 6
-5 12 -6 12 -2 0 12 -33 34 -52 35 -25 0 -22 15 7 34 14 9 23 22 19 28 -4 7
-9 6 -15 -3 -10 -16 -12 -8 -9 44 1 31 -2 37 -19 37 -12 0 -21 6 -21 15 0 8
-4 15 -10 15 -5 0 -10 -4 -10 -9 0 -5 -10 -7 -22 -3 -19 5 -21 2 -15 -26 6
-29 4 -32 -19 -32 -21 0 -24 3 -15 14 9 11 6 15 -14 20 -14 4 -25 13 -25 21 0
8 -4 15 -10 15 -5 0 -10 -4 -10 -10 0 -5 -9 -10 -20 -10 -19 0 -23 8 -21 40 0
10 -1 11 -5 3 -8 -17 -79 -16 -93 1 -13 15 -4 49 10 40 5 -3 9 0 9 5 0 6 -4
11 -10 11 -5 0 -10 9 -10 20 0 23 -6 24 -40 6 -21 -12 -26 -12 -37 3 -20 25
-15 34 15 27 20 -5 23 -4 12 4 -8 5 -32 10 -52 10 -21 0 -38 5 -38 11 0 6 10
9 23 6 12 -3 31 -2 42 3 17 6 14 9 -17 15 -21 4 -49 4 -62 1 -23 -6 -23 -4
-13 19 7 14 15 25 20 25 4 0 7 5 7 10 0 6 -3 9 -7 9 -22 -4 -24 3 -8 21 10 11
14 20 8 20 -15 0 -57 39 -50 47 4 3 15 -1 25 -10 10 -10 26 -17 35 -17 9 0 17
-4 17 -10 0 -5 7 -10 15 -10 20 0 57 -38 50 -50 -4 -6 2 -10 12 -10 20 0 45
-44 36 -66 -9 -25 15 -15 36 15 12 17 29 28 39 26 9 -1 12 0 5 2 -6 2 -11 12
-10 22 1 15 4 17 19 7 10 -6 18 -14 18 -19 0 -4 5 -5 11 -2 5 4 19 -1 30 -11
21 -19 24 -9 9 31 -8 20 -16 26 -29 22 -14 -3 -18 -1 -14 10 3 7 2 13 -3 12
-22 -4 -33 2 -28 16 4 8 1 22 -6 30 -10 13 -9 15 10 15 15 0 20 5 17 14 -10
25 5 25 31 0 15 -13 27 -32 27 -41 0 -10 6 -17 13 -15 15 3 16 -10 1 -25 -7
-7 -7 -13 -1 -17 5 -3 13 6 17 21 4 17 2 29 -4 31 -6 2 -9 8 -5 13 7 12 84 12
84 -1 0 -5 4 -10 9 -10 4 0 6 12 3 26 -3 18 -1 25 6 20 20 -12 8 -60 -18 -73
-25 -12 -48 -53 -30 -53 6 0 10 4 10 10 0 5 11 17 25 26 21 13 28 14 41 4 8
-7 13 -18 11 -24 -3 -7 6 -17 19 -23 l24 -11 -20 25 c-54 69 -54 179 -1 463
22 118 56 303 76 410 19 107 53 287 75 400 67 350 93 491 89 494 -2 1 -98 58
-214 126 -115 68 -268 158 -340 201 -108 64 -356 209 -530 309 -91 53 -412
244 -435 259 -14 9 -55 35 -92 56 -68 39 -96 70 -37 39 26 -13 33 -14 41 -2 8
10 9 9 4 -4 -3 -11 2 -19 17 -24 34 -12 101 -13 114 -2 8 6 10 4 6 -10 -3 -15
3 -22 28 -31 39 -13 59 -14 39 -1 -36 23 30 8 88 -20 34 -16 66 -30 70 -30 6
0 -140 87 -248 147 -25 14 -76 43 -115 66 -130 74 -200 114 -315 179 -63 36
-214 121 -335 190 -121 69 -265 150 -320 180 -160 89 -183 102 -325 185 -74
44 -162 94 -194 113 l-59 33 6 -44 c4 -30 14 -51 32 -66 l26 -23 -30 0 c-17 0
-41 5 -55 11 -23 11 -25 18 -28 82 l-3 70 -70 39 c-38 22 -94 53 -123 70 -45
26 -52 27 -50 11 3 -44 -3 -103 -11 -103 -5 0 -31 13 -58 29 -53 32 -457 264
-648 371 -66 38 -138 79 -160 93 -22 14 -148 86 -280 162 -132 75 -244 142
-248 149 -4 6 -6 37 -5 69 l3 57 -100 59 -100 59 -3 -52 c-1 -28 -4 -56 -7
-63 -4 -11 -139 63 -320 175 -27 17 -76 46 -109 64 l-58 33 5 63 5 63 -60 37
c-85 53 -100 65 -65 52 37 -13 50 -13 41 2 -5 8 -2 9 10 5 14 -5 15 -3 6 12
-7 14 -6 22 6 32 8 7 13 18 10 25 -3 9 1 11 12 7 25 -9 15 0 -62 51 -41 27
-63 47 -55 50 39 12 163 18 459 22 179 2 332 7 340 11 8 3 36 5 63 4 41 -1 47
1 47 19 0 18 -7 20 -54 20 -66 0 -78 12 -66 65 5 22 14 94 20 160 5 66 13 139
16 163 l5 43 491 -3 c328 -2 493 1 495 8 2 6 -46 9 -139 8 -101 -2 -154 2
-183 12 -47 16 -75 18 -75 4 0 -17 -40 -11 -69 11 -23 17 -33 19 -49 10 -29
-15 -73 -13 -96 4 -27 20 -32 19 -68 -15 -17 -17 -33 -28 -36 -25 -3 2 6 13
19 24 l24 19 -25 6 c-69 14 -99 16 -105 6 -9 -14 -43 -7 -171 35 -118 39 -220
63 -320 76 -39 5 -98 15 -130 24 -32 8 -90 15 -129 15 -42 1 -80 6 -95 15 -14
8 -40 14 -57 15 -30 0 -33 3 -33 30 0 39 -23 85 -64 130 -43 46 -135 212 -181
325 -55 134 -81 181 -149 273 -82 111 -161 160 -286 177 -116 15 -169 24 -186
32 -11 6 -50 18 -89 27 -81 20 -215 75 -215 87 0 5 4 9 8 9 5 0 34 24 65 54
54 51 83 100 145 249 12 28 17 29 68 10 13 -5 6 -23 340 966 134 398 244 736
244 752 0 15 -5 31 -10 34 -6 3 -52 11 -103 16 -50 5 -150 16 -222 23 -71 8
-133 12 -136 10 -4 -2 -32 -84 -64 -181 -89 -282 -127 -383 -143 -383 -4 0
-20 23 -37 51 -16 28 -41 70 -54 93 -14 22 -29 44 -35 48 -6 3 -22 16 -35 27
-13 12 -28 21 -33 21 -8 0 -5 19 10 59 3 9 -1 12 -14 8 -10 -3 -33 -8 -51 -12
-51 -10 -51 17 2 176 26 77 45 142 44 143 -6 5 -359 39 -363 35 -1 -2 -12 -24
-24 -49 -16 -33 -20 -37 -15 -15 4 17 7 44 6 60 -1 17 1 24 4 17 4 -10 8 -10
19 -1 8 6 14 8 14 4 0 -4 11 0 25 9 13 9 32 16 42 15 12 -1 10 -3 -7 -8 -20
-6 -15 -8 29 -14 52 -6 87 4 76 23 -3 4 -51 13 -107 20 -57 6 -119 16 -138 21
-35 8 -168 22 -225 23 l-30 1 1 -130 c1 -72 6 -147 12 -168 8 -27 7 -37 -1
-37 -7 0 -3 -7 7 -15 19 -15 19 -15 -2 -15 -40 0 -61 34 -66 105 0 11 -10 24
-21 28 -20 9 -20 9 2 17 16 7 21 17 21 45 0 28 -3 35 -14 31 -9 -3 -17 2 -20
12 -3 9 -10 25 -16 36 -9 17 -6 18 31 14 23 -2 41 0 41 4 0 9 -25 15 -99 23
l-64 7 7 -199 c6 -175 5 -201 -9 -213 -8 -7 -18 -10 -22 -6 -3 3 -2 6 3 6 10
0 10 249 0 365 -9 110 -15 207 -22 378 l-6 158 -67 -6 c-67 -6 -99 3 -86 24 4
8 29 10 79 5 l73 -7 -1 69 -1 69 -55 2 c-30 1 -47 -1 -37 -4 11 -3 16 -11 13
-19 -3 -7 -1 -16 5 -20 5 -3 7 -14 4 -25 -5 -16 -1 -19 24 -19 33 0 37 -6 21
-30 -6 -10 -10 -11 -10 -2 0 8 -19 12 -59 12 -33 0 -63 5 -66 10 -4 6 7 10 27
10 29 1 31 2 16 14 -10 7 -15 16 -11 19 3 4 -5 7 -18 8 l-24 0 23 9 c32 13 27
24 -8 17 -16 -4 -30 -2 -30 3 0 5 15 11 33 13 17 2 -1 5 -42 5 l-73 2 5 -32z
m747 -999 c44 0 89 -6 103 -14 14 -7 34 -11 44 -9 10 3 36 -4 58 -16 21 -11
45 -20 51 -20 7 0 14 -3 16 -7 3 -8 76 -48 87 -48 3 0 29 -16 56 -34 88 -61
167 -155 233 -277 8 -14 17 -73 22 -132 4 -59 11 -116 15 -127 4 -11 9 -27 12
-35 4 -8 7 -19 8 -25 2 -5 8 -28 14 -50 16 -60 -2 -462 -24 -535 -32 -107 -47
-139 -61 -133 -9 3 -14 -2 -14 -16 0 -14 -8 -23 -25 -27 -14 -3 -24 -11 -23
-18 6 -27 -18 -18 -31 11 -17 39 -37 48 -59 27 -15 -15 -14 -16 8 -9 14 4 22
4 17 0 -4 -5 0 -19 8 -32 9 -13 11 -23 5 -23 -6 0 -10 -8 -8 -17 2 -14 -3 -17
-22 -15 -13 1 -27 7 -31 14 -4 6 -12 7 -19 3 -8 -5 -11 2 -9 26 3 39 -21 101
-37 95 -6 -2 -17 4 -25 15 -7 10 -19 19 -25 19 -19 0 -48 52 -59 104 -13 63
-51 96 -93 80 -24 -9 -30 -8 -43 10 -9 12 -37 32 -63 45 -42 20 -49 21 -64 8
-9 -8 -32 -22 -49 -31 -37 -19 -41 -38 -19 -91 14 -34 14 -35 -13 -54 -33 -24
-111 -39 -111 -22 0 6 -4 11 -10 11 -5 0 -10 -8 -10 -18 0 -15 -6 -18 -30 -14
-19 3 -30 0 -30 -7 0 -7 -7 -11 -16 -9 -10 2 -19 -3 -21 -9 -3 -7 2 -13 11
-13 21 0 21 -19 0 -27 -8 -3 -13 -12 -10 -20 8 -20 -4 -64 -16 -57 -5 3 -7 12
-4 20 3 8 1 14 -4 14 -15 0 -70 61 -70 78 0 30 -17 47 -33 34 -17 -15 -27 -6
-27 25 0 27 -15 30 -28 7 -8 -14 -13 -8 -32 29 -13 25 -20 54 -18 65 4 14 2
19 -7 16 -18 -7 -33 16 -37 56 -2 25 -10 38 -25 45 -30 13 -34 25 -45 135 -12
119 -11 171 3 207 15 38 23 253 9 253 -5 0 -10 12 -10 28 0 21 2 24 10 12 9
-13 11 -13 20 0 12 19 13 43 1 36 -5 -3 -9 10 -8 28 0 19 4 33 9 30 4 -3 10 7
14 21 3 14 11 25 18 25 6 0 21 24 34 53 12 29 43 74 67 101 25 26 45 52 45 57
0 5 6 9 14 9 8 0 36 15 62 33 27 19 67 40 89 48 22 8 45 20 50 27 13 16 95 42
114 36 8 -2 49 -5 91 -5z m43 -1474 c32 -8 70 -15 85 -15 25 -1 25 -2 8 -12
-18 -10 -18 -11 5 -24 21 -12 12 -13 -71 -8 -144 9 -156 10 -169 19 -7 4 -17
3 -23 -3 -7 -7 -3 -14 13 -23 13 -7 27 -12 32 -11 4 1 7 -11 7 -28 0 -25 10
-37 24 -27 8 5 56 -62 56 -79 1 -18 1 -18 11 -1 11 19 69 24 69 6 0 -7 10 -9
25 -7 30 6 33 -7 6 -22 -32 -17 -58 -12 -64 12 -4 12 -10 19 -14 14 -8 -8 -9
-12 -12 -43 -1 -16 -3 -16 -16 1 -14 18 -15 18 -15 2 0 -11 -5 -15 -12 -12 -7
3 -21 9 -30 12 -10 4 -18 13 -18 21 0 8 -5 11 -10 8 -6 -4 -18 -1 -27 7 -15
11 -16 10 -11 -9 8 -29 2 -29 -26 2 -13 14 -31 25 -40 25 -10 0 -14 5 -11 10
3 6 0 10 -8 10 -17 0 -27 30 -27 81 0 24 7 42 23 57 21 20 32 22 108 18 50 -2
76 -1 64 4 -11 5 -31 9 -45 10 -24 2 -23 3 5 10 44 11 46 11 108 -5z m318
-109 c4 -11 7 -87 3 -78 -10 21 -21 13 -17 -12 3 -13 0 -27 -6 -30 -7 -4 -11
1 -11 13 0 13 -7 21 -16 21 -12 0 -15 -7 -11 -26 4 -20 -1 -27 -21 -35 -28
-11 -92 -9 -92 3 0 4 -6 8 -14 8 -11 0 -14 10 -12 33 4 50 15 65 49 72 43 9
100 27 111 36 7 6 34 2 37 -5z m-980 -587 c32 -63 62 -119 68 -126 42 -47 -51
18 -160 110 -43 36 -69 65 -69 78 0 15 5 19 18 15 12 -4 27 3 42 19 13 14 29
24 34 22 6 -2 36 -55 67 -118z m1763 -558 c13 -20 60 -441 51 -450 -6 -5 -298
-90 -312 -91 -11 0 -213 394 -213 415 0 10 80 35 325 101 135 36 142 38 149
25z m-569 -646 c21 -678 23 -711 39 -770 8 -33 16 -73 16 -89 0 -58 -46 53
-54 129 -4 38 -9 71 -11 73 -2 2 -17 -4 -34 -12 -16 -9 -32 -12 -35 -8 -9 15
-18 97 -9 87 9 -11 63 -20 63 -10 0 3 -9 24 -21 46 -19 39 -20 44 -5 107 24
109 38 315 34 499 -2 95 0 169 3 165 4 -4 10 -101 14 -217z m705 -187 c41 -20
89 -48 105 -62 29 -24 29 -25 7 -26 -21 0 -21 -2 -8 -22 8 -13 22 -49 31 -81
10 -33 28 -69 43 -84 23 -22 16 -20 -48 15 -248 133 -250 135 -229 238 7 35
15 63 18 62 4 -2 40 -20 81 -40z m-641 -804 c19 -41 38 -77 43 -80 7 -4 51 10
186 63 6 3 12 0 12 -7 0 -6 7 -18 15 -26 8 -9 15 -25 15 -36 0 -18 -2 -19 -17
-7 -10 7 -15 9 -10 4 5 -6 -71 -45 -89 -45 -1 0 -4 9 -7 19 -4 15 3 24 28 35
18 9 40 16 49 16 9 0 16 5 16 10 0 16 -33 12 -112 -15 -40 -14 -74 -25 -75
-25 -2 0 -3 -9 -3 -20 0 -23 -39 -51 -77 -55 -16 -1 -37 -6 -47 -10 -14 -6
-17 -5 -12 3 4 7 14 12 22 12 8 0 14 5 14 10 0 12 -1 12 -56 -1 -44 -11 -56
-23 -31 -32 9 -3 9 -7 1 -17 -13 -13 -58 -4 -49 10 3 5 -12 3 -34 -5 -44 -15
-100 -44 -88 -45 5 0 17 5 28 10 13 7 19 7 19 0 0 -5 8 -11 18 -11 16 -1 16
-2 0 -6 -10 -2 -18 -9 -18 -14 0 -6 -4 -8 -10 -4 -10 6 -45 -24 -52 -46 -3 -8
-14 4 -26 29 l-21 44 52 22 c29 13 98 40 154 62 98 37 103 40 103 69 0 22 -3
26 -12 17 -14 -14 -38 -16 -38 -3 0 5 14 14 31 20 31 11 31 11 27 71 -3 38 0
60 6 60 6 0 26 -34 45 -76z m295 -154 c19 -49 20 -58 4 -57 -40 1 -59 -4 -52
-15 4 -7 3 -8 -5 -4 -6 4 -19 0 -28 -9 -9 -9 -24 -14 -35 -12 -10 3 -16 2 -14
-2 3 -4 -22 -13 -56 -20 -33 -7 -68 -16 -77 -22 -36 -20 -317 -119 -335 -118
-23 1 105 54 240 100 78 26 164 59 192 73 28 14 62 26 75 26 23 0 55 25 46 35
-3 2 -56 -15 -119 -39 -63 -24 -176 -67 -250 -96 -222 -85 -210 -81 -210 -56
0 18 12 26 68 46 37 13 72 26 77 30 6 4 57 24 114 44 98 34 167 61 238 92 17
8 37 14 45 14 7 0 22 7 32 15 28 21 32 19 50 -25z m13 -175 c18 -44 33 -85 33
-91 0 -6 13 -38 30 -70 16 -32 30 -66 30 -74 0 -9 8 -27 17 -40 10 -14 16 -34
14 -45 -3 -17 -1 -18 16 -5 10 8 21 20 25 25 5 6 8 4 8 -6 0 -23 -21 -39 -51
-39 -15 0 -31 -5 -35 -11 -4 -8 -9 -7 -16 2 -7 11 -11 11 -15 2 -2 -7 -11 -13
-19 -13 -8 0 -32 -11 -52 -25 -20 -14 -44 -25 -52 -25 -9 0 -25 -7 -37 -15
-13 -9 -24 -11 -28 -6 -5 9 -89 -24 -117 -46 -7 -6 -24 -14 -38 -18 -14 -4
-47 -18 -74 -31 -58 -28 -60 -28 -53 -10 3 8 0 17 -7 19 -13 5 -50 72 -51 92
-1 6 -8 24 -17 40 -9 17 -23 53 -31 80 -8 28 -25 69 -36 92 -12 23 -21 49 -21
57 0 8 -4 18 -10 21 -5 3 -10 1 -10 -6 0 -7 -3 -10 -6 -6 -16 16 23 43 117 79
309 118 416 156 434 155 14 -2 28 -23 52 -82z m392 -256 c17 -21 18 -21 50 -4
l33 17 35 -34 c20 -18 50 -56 69 -84 27 -43 32 -57 27 -91 -4 -29 -12 -44 -27
-51 -15 -8 -17 -11 -5 -11 12 -1 16 -11 15 -46 -1 -42 -2 -44 -28 -41 -14 2
-32 -1 -40 -5 -9 -6 -5 -9 14 -9 50 0 58 -9 58 -61 0 -71 -21 -75 -75 -16 -24
26 -50 47 -58 47 -9 0 -29 12 -46 28 -22 20 -28 31 -21 42 14 21 13 24 -15 52
-21 22 -23 29 -15 60 6 22 7 68 1 124 -11 109 -6 125 28 83z m1196 -966 c234
-118 318 -166 351 -201 11 -11 36 -25 56 -31 39 -13 60 -31 36 -31 -17 -1 33
-39 50 -40 7 0 10 5 7 10 -11 18 10 10 61 -22 27 -17 71 -42 99 -56 60 -31
182 -109 190 -122 9 -15 -8 -12 -31 5 -10 8 -28 15 -38 15 -11 0 -16 3 -13 7
8 7 -62 56 -108 75 -16 7 -34 16 -40 20 -26 21 -87 58 -95 58 -19 0 -10 -15
20 -35 16 -11 30 -25 30 -31 0 -7 7 -14 15 -18 8 -3 15 -12 15 -19 0 -8 15
-22 34 -32 19 -11 33 -22 30 -26 -2 -4 0 -10 6 -14 19 -12 11 -26 -9 -15 -11
5 -29 10 -40 10 -12 0 -21 5 -21 10 0 6 10 10 23 10 18 0 19 2 7 10 -8 5 -23
7 -32 4 -12 -4 -18 0 -18 11 0 8 -7 18 -15 21 -8 4 -15 14 -15 23 0 12 -9 16
-38 16 -40 0 -65 12 -56 27 7 11 46 0 56 -16 6 -8 8 -8 8 0 0 19 -82 94 -104
94 -5 0 1 -11 14 -25 13 -14 21 -28 18 -31 -10 -9 -48 16 -48 32 0 11 -4 12
-18 5 -12 -6 -28 -5 -51 5 -40 17 -55 18 -45 3 4 -8 0 -7 -15 1 -24 13 -19 30
9 30 10 0 22 5 25 10 8 12 55 13 55 1 0 -5 -9 -11 -21 -14 -12 -3 -18 -10 -14
-16 10 -18 54 -12 75 9 l21 21 -28 -6 c-16 -3 -22 -2 -15 1 18 9 15 24 -6 24
-11 0 -30 10 -43 21 -13 12 -36 26 -51 31 -16 6 -28 14 -28 19 0 5 -9 9 -20 9
-10 0 -24 9 -31 21 -7 13 -17 19 -29 16 -11 -3 -17 0 -14 7 5 16 -72 49 -106
44 -16 -3 -28 0 -27 6 1 5 -11 13 -28 17 -25 5 -26 7 -7 8 13 0 21 5 18 10 -9
13 -55 19 -59 8 -4 -13 -37 -2 -37 13 0 5 8 10 18 10 14 0 15 2 2 10 -8 5 -24
10 -35 10 -17 0 -17 -2 -5 -10 8 -5 11 -10 5 -10 -20 0 -37 18 -30 30 5 9 2
10 -14 5 -28 -9 -52 6 -25 16 17 7 17 8 -4 8 -16 1 -26 -6 -29 -19 -6 -24 -19
-25 -39 -6 -16 16 -19 30 -5 21 6 -3 15 3 20 13 9 17 5 21 -28 31 -22 6 -47 8
-57 5 -15 -4 -16 -4 -5 4 11 8 10 11 -7 16 -11 4 -26 13 -32 21 -23 28 119
-33 355 -152z m-2958 -151 c23 -12 45 -27 48 -33 8 -12 116 -62 158 -73 16 -4
47 -24 70 -44 23 -21 58 -49 77 -64 74 -55 110 -95 110 -122 0 -27 -15 -35
-23 -13 -3 6 -6 2 -6 -10 -1 -12 -5 -25 -11 -28 -5 -3 -10 -17 -10 -30 0 -14
-7 -25 -16 -27 -12 -2 -7 -14 24 -53 62 -78 101 -156 95 -191 -6 -33 -38 -63
-69 -64 -21 0 -57 32 -67 62 -7 19 22 48 47 48 9 0 14 5 11 10 -3 6 -17 8 -31
6 -21 -4 -24 -2 -19 15 6 17 1 19 -37 20 -57 1 -97 12 -80 23 6 4 12 11 12 15
0 6 -63 42 -80 46 -3 0 -25 19 -48 42 -30 28 -39 42 -30 46 9 4 7 6 -5 6 -10
1 -30 9 -45 18 -32 20 -112 100 -112 112 0 15 -89 101 -95 92 -3 -6 19 -59 49
-118 46 -93 77 -161 111 -248 4 -11 9 -29 10 -39 2 -16 -2 -15 -19 7 -24 30
-39 36 -30 12 4 -8 1 -15 -5 -15 -7 0 -14 8 -17 18 -3 9 -10 24 -15 32 -5 8
-13 25 -18 37 -15 33 -33 40 -25 9 7 -28 -10 -37 -20 -11 -3 8 -12 15 -20 15
-8 0 -38 14 -66 30 -28 17 -55 30 -60 30 -14 0 -12 18 3 23 6 2 27 2 46 -1 25
-4 32 -2 27 7 -5 7 -14 10 -22 7 -8 -3 -23 3 -34 14 -11 11 -26 20 -32 20 -7
0 -35 11 -63 24 -47 23 -65 25 -65 7 0 -11 36 -51 45 -51 19 0 287 -289 279
-301 -3 -6 -10 -6 -17 -1 -25 20 -55 23 -59 7 -3 -14 -6 -13 -26 5 -13 12 -21
27 -19 34 3 8 -7 11 -29 11 -25 -1 -38 5 -54 27 -11 15 -27 28 -35 28 -8 0
-18 6 -22 14 -13 22 -76 56 -105 56 -25 0 -28 -4 -28 -31 0 -23 12 -43 48 -81
26 -27 58 -56 72 -63 69 -36 241 -187 228 -200 -6 -7 -151 47 -166 61 -7 8
-19 14 -27 14 -7 0 -15 3 -17 8 -9 21 -80 62 -108 62 -21 0 -30 4 -27 13 7 21
-13 47 -37 47 -13 0 -37 5 -55 11 -28 10 -31 15 -31 53 0 24 5 57 11 75 9 25
14 29 25 20 8 -6 14 -18 14 -26 0 -8 5 -11 10 -8 6 4 17 2 24 -4 11 -9 10 2
-1 56 -17 79 -58 173 -75 173 -6 0 -9 3 -5 6 3 3 -7 20 -23 37 -22 24 -28 37
-23 57 7 30 21 40 41 32 11 -4 14 -1 9 11 -16 43 49 124 136 168 64 33 77 35
246 33 138 -1 161 -4 198 -22z m3229 -198 c9 -14 23 -23 30 -20 8 3 14 1 14
-4 0 -5 12 -13 26 -16 14 -4 37 -17 52 -31 20 -18 32 -22 54 -18 28 7 40 -8
16 -18 -8 -3 -6 -6 5 -6 9 -1 17 -8 17 -16 0 -19 -5 -19 -34 0 -20 13 -24 14
-29 2 -3 -8 -14 -17 -25 -19 -15 -4 -19 -2 -15 9 5 12 1 14 -15 9 -14 -5 -25
-1 -34 12 -20 29 -37 35 -55 20 -14 -11 -15 -10 -9 10 6 19 3 23 -23 28 -17 4
-28 11 -25 16 4 6 21 7 38 4 l31 -6 -25 19 c-25 20 -25 20 -49 -2 -23 -21 -22
-15 9 31 19 28 26 28 46 -4z m244 -134 c0 -5 9 -10 19 -10 11 0 21 -5 23 -11
2 -5 20 -11 39 -12 21 -1 35 -7 32 -13 -2 -6 10 -8 33 -6 26 3 35 1 30 -7 -4
-6 -1 -11 8 -11 9 0 16 -4 16 -9 0 -5 8 -11 18 -13 13 -4 19 -15 20 -38 0 -18
6 -38 13 -44 9 -8 10 -8 5 2 -4 7 -1 15 9 18 13 5 13 9 3 23 -12 14 -11 14 4
3 9 -8 14 -20 11 -28 -3 -8 0 -14 6 -14 6 0 11 5 11 10 0 6 4 10 9 10 6 0 9
-9 8 -21 -1 -14 -7 -19 -18 -16 -9 3 -23 1 -30 -4 -10 -6 -9 -10 6 -15 11 -4
23 -12 26 -17 9 -13 42 0 34 13 -4 6 4 5 19 -1 29 -13 25 -29 -6 -29 -20 0
-20 -1 -5 -18 19 -21 23 -42 5 -24 -16 16 -28 15 -28 -3 0 -7 8 -18 18 -24 16
-9 16 -10 -1 -17 -10 -3 -30 -1 -45 7 -43 21 -45 22 -39 13 2 -5 -1 -15 -9
-22 -12 -11 -14 -10 -14 3 0 8 -5 15 -11 15 -5 0 -8 4 -5 9 6 10 -14 29 -48
46 -11 6 -21 16 -21 22 0 19 -16 28 -24 15 -6 -9 -16 -4 -39 19 -18 18 -32 37
-32 41 0 5 -4 7 -9 4 -13 -9 -42 4 -35 15 5 9 34 9 44 -1 13 -13 53 -31 58
-26 7 7 -23 31 -60 48 -31 14 -37 28 -12 28 8 0 12 4 9 10 -3 6 1 7 10 3 12
-4 13 -8 4 -13 -8 -6 -5 -11 10 -19 11 -7 21 -8 21 -4 0 4 5 0 11 -9 6 -11 16
-15 26 -11 10 4 14 2 10 -4 -4 -6 4 -18 18 -27 27 -18 35 -7 10 14 -8 7 -15
19 -15 26 0 8 -6 14 -14 14 -8 0 -28 14 -46 30 -18 17 -35 30 -38 30 -3 0 -21
10 -39 23 -33 22 -42 37 -23 37 6 0 10 -4 10 -10z m-2376 -795 c-8 -21 47
-100 57 -83 5 7 1 20 -8 31 -13 13 -14 20 -5 29 9 9 12 8 12 -5 0 -9 4 -17 9
-17 14 0 21 -44 8 -52 -8 -5 -5 -12 9 -25 12 -10 19 -24 16 -32 -3 -9 1 -11
17 -6 25 8 28 -7 4 -26 -13 -11 -17 -12 -21 -1 -3 10 -8 8 -18 -5 -18 -24 -18
-37 0 -30 11 4 13 1 9 -11 -3 -11 1 -9 11 6 19 25 49 31 40 7 -4 -9 -1 -15 7
-15 19 1 49 25 49 39 0 6 7 11 15 11 8 0 15 6 15 14 0 8 7 16 14 19 10 4 13 1
9 -9 -3 -9 6 -27 22 -44 15 -15 26 -31 25 -35 -3 -10 48 -65 60 -65 6 0 9 -5
8 -11 -2 -6 3 -14 10 -16 7 -3 12 3 13 14 0 16 1 16 8 -2 6 -14 3 -24 -8 -33
-14 -12 -12 -13 16 -8 18 3 35 1 39 -5 3 -6 12 -8 20 -5 8 3 17 -1 20 -9 4 -8
10 -15 15 -15 22 0 -12 37 -45 50 -36 14 -48 30 -22 30 8 0 21 3 30 6 12 5 16
0 17 -17 0 -21 2 -22 12 -7 9 14 13 10 27 -30 18 -52 16 -69 -6 -51 -10 8 -14
8 -14 0 0 -6 -9 -11 -19 -11 -17 0 -18 -3 -8 -35 13 -43 29 -47 21 -5 -5 22
-3 30 7 30 20 -1 50 -26 41 -35 -4 -4 3 -5 16 -2 15 3 22 1 22 -10 0 -9 -6
-13 -15 -9 -22 8 -18 -13 10 -50 14 -18 25 -38 25 -45 0 -19 49 -79 65 -79 9
0 12 -6 9 -15 -4 -9 0 -15 10 -15 25 0 19 13 -21 49 -35 31 -35 32 -10 25 22
-5 26 -3 21 10 -3 9 -1 16 5 16 6 0 11 5 11 12 0 6 -9 3 -20 -7 -26 -24 -48
-8 -31 23 7 14 18 19 33 15 22 -4 22 -4 4 11 -16 13 -20 13 -33 0 -28 -27 -46
-13 -32 25 8 19 12 21 24 11 21 -17 20 6 0 27 -8 8 -13 19 -9 24 3 6 0 16 -6
24 -7 9 -8 15 -2 15 12 0 24 -29 16 -41 -3 -5 -1 -9 5 -9 19 0 23 21 11 51 -9
21 -10 33 -3 40 8 8 13 7 18 -2 5 -8 4 -10 -3 -5 -7 4 -12 1 -12 -8 0 -20 17
-29 24 -14 4 7 4 -2 1 -19 -2 -19 0 -33 6 -33 5 0 17 -16 25 -36 12 -30 13
-42 3 -65 -10 -26 -8 -82 6 -121 6 -17 -25 -58 -32 -40 -3 6 -9 12 -14 12 -5
0 0 -13 13 -30 12 -16 28 -30 35 -30 16 0 17 12 2 27 -8 8 -5 17 11 33 18 18
20 26 11 52 -26 73 -1 42 50 -62 31 -64 43 -101 46 -150 4 -43 14 -79 30 -107
14 -24 22 -48 20 -55 -4 -8 -8 -4 -12 10 -4 12 -12 22 -17 22 -5 0 -7 -9 -3
-19 5 -16 2 -18 -14 -14 -11 3 -22 16 -25 29 -5 20 -11 23 -33 18 -18 -5 -24
-4 -19 5 4 6 14 11 22 11 16 0 19 16 4 25 -5 3 -10 10 -10 16 0 5 9 4 20 -3
11 -7 20 -22 20 -33 0 -11 4 -27 10 -35 17 -27 25 19 8 49 -8 14 -18 38 -22
54 -3 15 -11 27 -17 27 -6 0 -8 -9 -4 -20 5 -16 2 -20 -15 -20 -17 0 -20 -4
-15 -20 10 -31 -5 -45 -22 -20 -18 26 -10 50 17 50 11 0 20 5 20 10 0 6 -11
10 -25 10 -14 0 -25 -4 -25 -9 0 -5 -10 -11 -22 -15 -14 -4 -19 -9 -12 -13 16
-12 26 -46 12 -40 -7 2 -12 10 -10 16 1 6 -5 14 -13 17 -22 9 -18 34 5 34 11
0 20 4 20 10 0 5 -14 7 -32 4 -28 -5 -31 -3 -18 8 16 14 20 42 7 54 -14 15 -6
24 12 14 22 -11 51 -4 51 13 0 7 -4 7 -12 -1 -15 -15 -31 -16 -22 0 5 7 3 8
-6 3 -8 -5 -19 0 -29 12 -19 24 -67 38 -76 23 -9 -14 4 -70 16 -70 6 0 6 8 -1
19 -14 27 -13 41 5 41 8 0 15 -4 15 -10 0 -5 7 -10 16 -10 8 0 13 -4 10 -9 -3
-4 -1 -23 4 -40 7 -25 6 -33 -6 -38 -12 -4 -13 -8 -3 -14 10 -6 10 -11 0 -23
-14 -16 -36 -12 -26 5 4 5 -1 9 -9 9 -9 0 -16 5 -16 10 0 6 -4 10 -10 10 -5 0
-7 -7 -4 -15 4 -11 -1 -15 -17 -15 -23 -1 -23 -1 -5 -15 10 -8 23 -12 28 -8 6
3 6 -2 0 -13 -5 -11 -7 -25 -4 -33 3 -10 -3 -12 -27 -6 -18 4 -31 3 -31 -3 0
-6 -18 -12 -40 -14 -25 -2 -39 0 -36 7 2 5 13 9 25 8 11 -2 21 2 21 7 0 6 -4
10 -10 10 -18 0 -10 15 19 35 24 16 28 22 18 34 -10 12 -8 13 16 9 30 -6 31
-5 17 23 -12 22 -35 26 -26 4 6 -17 -9 -20 -20 -4 -7 13 22 34 46 34 8 0 16 8
18 18 2 9 -1 17 -7 17 -6 0 -11 -5 -11 -11 0 -6 -6 -9 -13 -6 -7 3 -19 -4 -25
-14 -16 -25 -24 -24 -45 9 l-18 27 5 -32 c4 -27 2 -31 -14 -30 -11 1 -20 5
-20 9 0 4 -4 8 -10 8 -15 0 -12 -40 3 -40 6 0 3 -6 -7 -12 -13 -7 -21 -8 -23
-1 -2 6 -10 19 -19 29 -12 16 -14 17 -12 2 2 -9 -1 -16 -7 -16 -28 3 -45 12
-45 23 0 8 -3 20 -6 29 -3 9 -1 16 5 16 6 0 11 -7 11 -16 0 -10 7 -14 22 -12
31 4 34 26 5 33 -13 4 -29 17 -36 31 -10 23 -35 32 -44 17 -2 -5 -2 -3 -1 4 2
6 0 14 -4 16 -4 2 -1 2 6 1 6 -2 12 1 12 6 0 16 57 11 64 -5 6 -16 32 -10 54
12 7 7 20 13 29 13 10 0 14 6 10 20 -3 10 0 21 7 23 6 3 7 8 2 13 -5 5 -11 3
-13 -4 -10 -27 -62 -72 -78 -66 -24 10 -18 34 9 34 14 0 27 4 30 9 9 14 -20
21 -33 8 -8 -8 -11 -7 -11 3 0 8 -8 4 -20 -10 -22 -26 -80 -34 -80 -12 0 7 -4
10 -10 7 -5 -3 -10 -1 -10 4 0 22 -16 10 -27 -19 -9 -24 -9 -30 3 -30 8 0 11
7 8 18 -5 14 -3 14 11 -3 8 -11 12 -21 6 -23 -13 -4 -1 -40 16 -46 9 -4 22 -1
30 5 7 7 16 9 19 6 9 -8 -6 -28 -16 -22 -4 3 -11 -2 -14 -11 -3 -8 -2 -12 4
-9 6 3 10 -1 10 -9 0 -15 -35 -22 -77 -17 -7 1 -13 -3 -13 -8 0 -6 -7 -8 -15
-5 -10 4 -15 0 -16 -12 0 -18 -1 -17 -9 1 -7 17 -9 17 -9 3 -1 -10 -6 -18 -12
-18 -7 0 -9 9 -5 23 3 12 6 28 6 36 0 11 3 11 15 1 15 -13 71 -5 81 11 3 6 -2
17 -12 24 -22 17 -38 19 -29 5 3 -6 -1 -7 -9 -4 -18 7 -22 24 -6 24 19 0 10
17 -15 30 -27 15 -28 37 -1 32 9 -2 16 2 16 8 0 16 -31 12 -51 -6 -17 -16 -18
-15 -14 17 2 18 -1 39 -7 47 -7 8 -8 16 -2 20 11 9 14 72 3 72 -5 0 -9 -4 -9
-10 0 -5 -4 -10 -10 -10 -5 0 -10 7 -10 16 0 8 -7 22 -15 30 -12 13 -15 13
-15 2 0 -8 5 -19 12 -26 6 -6 8 -15 3 -19 -4 -5 -10 -2 -12 5 -3 6 -9 10 -14
6 -13 -8 -11 33 3 56 10 16 10 23 -4 37 -10 9 -21 14 -25 10 -3 -4 -1 -13 5
-19 15 -15 16 -38 2 -38 -15 0 -24 50 -11 63 26 26 8 28 -19 2 -23 -22 -30
-25 -30 -12 0 9 7 17 15 17 9 0 12 6 9 15 -4 8 -1 15 5 15 6 0 8 6 5 13 -3 9
-21 13 -57 11 -47 -2 -50 -1 -33 12 11 8 15 14 8 14 -22 0 -31 34 -15 55 14
19 15 19 11 -5 -2 -18 3 -28 20 -35 12 -5 22 -13 22 -17 0 -5 7 -8 16 -8 13 0
14 3 5 14 -8 10 -9 16 -1 21 6 3 7 11 4 17 -4 6 -9 5 -15 -3 -10 -17 -33 37
-24 59 4 10 0 12 -11 8 -8 -3 -22 1 -30 9 -9 8 -20 15 -25 15 -16 0 -22 -29
-9 -45 7 -9 14 -27 16 -40 2 -22 0 -24 -19 -14 -43 23 -49 31 -31 44 15 11 15
14 -6 33 -25 23 -21 43 5 22 12 -10 15 -10 15 4 0 9 -7 16 -15 16 -8 0 -15 4
-15 9 0 15 18 23 25 11 10 -16 28 -11 21 6 -5 13 -2 15 14 11 27 -7 25 -2 -10
43 -16 20 -27 40 -23 44 3 3 1 6 -5 6 -7 0 -12 9 -12 21 0 12 5 19 13 17 6 -3
12 -11 12 -19 0 -8 5 -17 10 -21 6 -5 5 -8 -4 -8 -7 0 3 -15 24 -34 24 -23 35
-40 32 -50 -8 -19 2 -20 26 -2 21 16 22 26 2 26 -21 0 -19 16 3 25 34 16 52
15 46 0 -4 -8 -10 -15 -14 -15 -5 0 -8 -24 -7 -52 2 -47 4 -53 22 -50 17 4 17
1 -5 -17 -26 -21 -13 -29 20 -11 15 8 21 6 30 -10 13 -24 4 -44 -16 -36 -9 3
-14 -2 -14 -14 0 -11 5 -20 10 -20 6 0 10 4 10 9 0 5 17 15 37 22 36 11 37 13
15 22 -14 6 -22 19 -22 34 0 14 -6 23 -15 23 -9 0 -20 11 -25 24 -5 13 -14 26
-20 28 -7 2 -5 10 5 23 16 20 16 20 10 -1 -7 -26 9 -40 52 -46 37 -5 54 17 20
26 -12 3 -23 1 -25 -4 -7 -19 -17 -10 -18 16 -1 14 -14 38 -28 53 -32 33 -36
57 -7 39 11 -7 19 -16 18 -21 -1 -5 6 -11 16 -12 25 -5 21 7 -12 39 -40 38
-46 66 -15 66 17 0 22 -4 18 -15z m2025 -503 c30 -26 121 -105 201 -177 80
-71 167 -149 193 -172 54 -47 56 -58 33 -194 -8 -46 -17 -109 -21 -139 -4 -30
-14 -79 -22 -109 -14 -50 -14 -61 2 -138 17 -83 17 -85 -4 -157 -12 -40 -25
-107 -30 -149 -8 -74 -10 -78 -63 -137 -32 -34 -60 -78 -68 -102 l-14 -43 -9
63 c-5 34 -13 60 -18 56 -5 -3 -9 -14 -9 -26 0 -14 -5 -18 -16 -14 -9 3 -22 6
-30 6 -9 0 -12 5 -9 10 3 6 -3 10 -15 10 -11 0 -33 11 -47 24 -14 13 -39 27
-55 30 -23 5 -29 10 -26 28 2 16 -4 26 -19 33 -13 5 -23 15 -23 21 0 7 -7 15
-16 18 -9 3 -13 13 -10 23 6 21 -38 58 -59 49 -7 -2 -18 1 -24 8 -6 7 -22 11
-35 9 -26 -5 -49 14 -111 90 -31 39 -44 48 -65 45 -15 -1 -35 4 -44 11 -13 11
-19 11 -31 1 -11 -10 -18 -9 -30 4 -9 9 -25 16 -36 16 -11 0 -29 6 -40 13 -25
14 -76 63 -81 76 -11 31 -123 141 -163 160 -25 12 -66 39 -89 61 -28 26 -53
40 -70 40 -25 0 -26 2 -26 59 0 33 7 71 15 87 8 16 15 37 15 47 0 9 4 17 8 17
7 0 95 46 517 270 55 29 160 91 234 137 74 45 139 83 145 83 6 0 35 -22 65
-48z m-1431 -496 c7 -4 10 -11 7 -15 -2 -5 2 -17 10 -27 20 -26 19 -31 -7 -30
-14 1 -24 -6 -26 -18 -2 -11 0 -16 7 -12 7 5 7 -3 0 -24 -8 -22 -8 -34 0 -44
6 -7 8 -16 4 -19 -11 -12 -43 -8 -43 6 0 21 -17 40 -30 32 -9 -6 -9 -9 1 -16
19 -12 -29 -11 -56 1 -18 8 -17 9 8 9 15 1 27 6 27 12 0 7 12 9 35 5 22 -4 35
-3 35 4 0 5 -4 10 -10 10 -5 0 -7 7 -4 15 5 12 -2 15 -31 15 -28 0 -38 -5 -42
-19 -6 -23 -37 -33 -53 -17 -10 8 -11 4 -5 -19 7 -32 20 -45 48 -45 19 0 21
-8 7 -30 -8 -13 -10 -12 -10 2 0 13 -11 20 -40 24 -33 5 -38 9 -29 21 9 10 9
20 0 39 -10 22 -9 28 6 40 21 16 30 17 35 5 2 -6 18 -5 41 2 23 7 35 17 32 24
-2 7 0 13 4 13 5 0 11 -6 14 -14 5 -12 11 -12 31 -3 38 18 19 66 -26 67 -10 0
-18 5 -18 10 0 11 58 8 78 -4z m-1839 -223 c3 -2 -7 -16 -21 -31 -65 -70 -61
-109 23 -223 33 -44 54 -79 46 -77 -25 5 -214 175 -343 305 -49 51 -51 55 -58
122 -4 43 -2 72 4 76 5 3 10 17 10 31 0 22 13 15 168 -87 92 -62 169 -113 171
-116z m7162 -194 c9 -18 8 -24 -5 -31 -14 -8 -23 -38 -12 -38 17 0 36 15 36
27 0 8 6 13 13 10 6 -2 11 -11 9 -21 -3 -15 13 -20 55 -19 7 0 15 -9 19 -21 3
-11 16 -31 27 -43 11 -13 18 -26 14 -29 -12 -12 -34 4 -50 38 -14 28 -17 30
-17 11 0 -14 -6 -23 -15 -23 -8 0 -15 6 -15 13 0 7 -9 18 -20 25 -26 16 -26
14 10 -55 17 -31 30 -61 30 -65 0 -10 -64 3 -68 14 -6 14 -42 9 -42 -6 0 -16
37 -46 57 -46 15 0 53 -31 53 -43 0 -5 -6 -7 -12 -4 -55 20 -60 20 -54 -5 3
-12 3 -17 0 -10 -3 6 -10 12 -15 12 -15 0 -59 43 -59 57 0 7 -8 13 -17 13 -15
0 -15 -2 -4 -9 10 -7 7 -9 -12 -8 -15 1 -27 8 -27 15 0 8 -8 10 -24 6 -18 -4
-25 -1 -29 17 -4 13 -4 25 -2 27 8 8 65 -10 59 -19 -10 -17 16 -9 36 11 24 24
26 40 4 40 -10 0 -14 6 -10 15 3 8 1 15 -4 15 -6 0 -10 7 -10 15 0 8 -6 15
-12 16 -7 0 -4 5 7 10 16 7 13 8 -12 4 -43 -6 -42 10 2 31 27 12 33 20 25 29
-15 18 15 28 41 14 11 -6 25 -8 32 -5 7 2 4 5 -5 5 -22 1 -24 31 -3 31 8 0 19
-10 26 -21z m-3077 -1361 c-16 -18 -34 -37 -40 -43 -12 -11 -34 -50 -34 -60 0
-4 21 -4 46 0 41 6 45 5 42 -12 -2 -10 -13 -19 -28 -21 -14 -2 -64 -14 -112
-28 -94 -26 -123 -30 -113 -14 3 6 -1 10 -9 10 -20 0 -30 -17 -14 -23 7 -3 -9
-6 -37 -6 -38 -1 -46 2 -35 10 11 8 12 12 3 16 -29 11 -9 23 40 23 28 0 87 8
130 17 68 16 77 20 77 40 0 14 19 42 52 73 59 57 76 66 32 18z"/>
<path d="M3430 12280 c-50 -10 -130 -47 -130 -60 0 -5 -16 -33 -36 -61 -28
-40 -33 -53 -23 -65 6 -8 17 -14 24 -14 8 0 15 -5 17 -11 2 -5 24 -13 48 -16
25 -3 55 -13 68 -21 17 -11 41 -13 100 -9 48 4 70 3 57 -3 -11 -5 -36 -9 -56
-9 -24 -1 -39 -7 -43 -17 -5 -14 1 -15 51 -10 32 4 72 7 89 9 22 1 30 6 26 16
-7 19 12 28 65 30 55 2 73 14 73 51 0 39 28 90 45 83 10 -3 15 2 15 17 0 12
-5 20 -12 18 -6 -2 -27 10 -46 28 -27 25 -51 35 -97 43 -69 12 -181 13 -235 1z"/>
<path d="M3923 12212 c-31 -16 -40 -48 -20 -68 4 -4 7 -29 7 -54 0 -26 3 -61
6 -77 5 -27 9 -30 46 -29 23 1 43 -4 45 -10 2 -7 -7 -10 -24 -8 -17 3 -11 -1
15 -10 23 -8 50 -20 58 -27 8 -7 41 -16 71 -20 46 -6 64 -4 96 11 22 11 44 17
48 14 5 -3 14 -2 20 2 8 4 4 13 -12 26 -14 10 -17 17 -9 16 18 -3 15 33 -3 44
-25 14 -62 51 -45 45 9 -3 19 -1 21 6 7 19 60 -14 75 -46 14 -30 39 -38 27 -9
-4 9 -9 31 -11 47 -10 66 -122 132 -254 150 -106 15 -125 14 -157 -3z"/>
<path d="M4451 5441 c-12 -8 -12 -13 2 -35 21 -32 21 -40 1 -32 -10 4 -14 1
-11 -6 2 -7 11 -12 20 -10 14 2 15 -1 7 -24 -12 -30 -5 -65 12 -61 6 1 13 -4
15 -10 3 -8 -3 -13 -14 -13 -17 -1 -17 -1 0 -11 9 -5 17 -17 17 -26 0 -10 6
-13 16 -9 14 5 15 4 4 -9 -10 -12 -16 -13 -26 -4 -20 16 -17 -1 3 -23 15 -17
15 -18 -1 -18 -11 0 -15 -5 -12 -12 3 -7 9 -21 12 -30 8 -23 24 -23 24 -2 0
13 7 15 30 10 19 -3 29 -2 25 4 -3 6 1 10 9 10 8 0 18 5 22 11 4 7 -4 10 -22
7 -22 -2 -30 2 -32 16 -3 11 0 16 7 12 7 -5 11 2 11 18 0 14 -3 25 -7 25 -22
-4 -32 4 -42 31 -6 18 -6 30 0 30 14 0 10 22 -7 45 -13 17 -16 18 -24 5 -5 -8
-10 -10 -10 -4 0 5 5 15 12 22 8 8 8 12 1 12 -6 0 -13 9 -16 20 -3 14 0 20 10
20 12 0 13 3 3 14 -6 8 -19 12 -28 10 -14 -5 -13 -2 2 10 21 17 11 22 -13 7z"/>
<path d="M4163 13940 c45 -8 57 -18 37 -30 -11 -7 -8 -11 13 -21 l28 -13 -33
-14 c-18 -8 -27 -16 -20 -19 14 -6 17 -83 2 -83 -5 0 -10 -7 -10 -15 0 -8 -6
-24 -12 -35 -11 -17 -10 -22 1 -30 11 -6 12 -12 4 -22 -5 -7 -13 -29 -16 -48
-3 -19 -3 -29 0 -22 10 25 24 11 18 -18 -4 -17 -7 -74 -7 -128 -1 -53 -6 -103
-11 -110 -18 -23 5 -30 138 -42 71 -6 136 -17 144 -23 12 -10 13 -9 7 8 -4 11
-10 47 -13 79 -3 33 -9 71 -15 85 -5 14 -11 73 -14 130 -2 57 -8 109 -15 117
-6 8 -9 43 -7 89 l3 75 -30 0 -30 1 25 14 c24 14 24 14 -20 15 -33 0 -41 3
-30 10 8 5 30 10 48 10 26 0 32 4 30 18 -2 13 3 16 22 14 19 -2 22 0 10 8 -8
5 -76 9 -150 9 -87 -1 -122 -4 -97 -9z"/>
<path d="M1620 13912 c0 -5 9 -21 20 -35 11 -14 18 -32 15 -39 -3 -8 5 -23 20
-34 31 -24 34 -48 4 -39 -19 6 -21 4 -16 -16 4 -13 7 -40 8 -59 0 -19 3 -29 6
-22 2 6 11 12 19 12 10 0 14 -12 14 -40 0 -22 5 -40 10 -40 6 0 10 33 10 80 0
64 3 80 15 80 11 0 15 12 15 50 0 33 4 50 13 50 7 0 8 3 2 8 -5 4 -15 16 -21
27 -9 16 -23 21 -73 23 -33 2 -61 -1 -61 -6z"/>
<path d="M8418 13883 c20 -4 22 -10 22 -79 0 -43 -4 -74 -10 -74 -5 0 -10 -9
-10 -20 0 -11 -6 -23 -13 -26 -10 -3 -13 -19 -10 -52 5 -44 3 -48 -27 -66 -25
-15 -44 -17 -85 -12 -59 7 -85 1 -85 -20 0 -9 -12 -14 -32 -15 -30 0 -31 -1
-10 -9 25 -11 27 -30 13 -125 -5 -33 -12 -105 -16 -160 -3 -55 -12 -145 -19
-200 -8 -55 -13 -101 -12 -102 1 -1 96 -13 210 -25 l207 -23 -5 -25 c-12 -60
24 -72 228 -75 94 -2 263 -6 376 -10 l206 -7 12 27 c7 15 11 29 9 31 -1 2 -40
6 -85 10 -86 7 -83 9 -97 -41 -3 -13 -105 -6 -105 7 0 5 9 6 20 3 11 -3 20 -2
20 3 0 6 12 15 28 20 26 10 25 10 -14 11 -23 1 -57 8 -75 16 l-34 14 30 1 30
0 3 117 c1 74 6 119 13 124 7 4 26 3 43 -2 66 -19 67 -18 82 126 l6 52 -61 7
c-34 4 -61 12 -61 18 0 7 14 8 43 4 71 -12 81 -12 83 4 1 8 7 60 14 115 6 55
18 144 26 198 8 53 16 129 19 167 2 39 7 74 10 80 4 6 -29 10 -92 10 -67 0
-93 -3 -83 -10 8 -5 10 -10 4 -10 -5 0 -11 -21 -13 -47 -1 -27 -4 -59 -6 -73
-3 -14 -11 -86 -19 -160 -16 -151 -48 -409 -71 -572 -8 -59 -15 -118 -15 -131
0 -24 -2 -24 -67 -20 -76 5 -96 9 -90 20 3 5 10 58 16 118 33 317 52 492 56
512 4 18 0 22 -22 25 -20 2 -29 9 -31 25 -2 16 1 21 10 18 9 -4 14 7 15 37 l2
43 -29 -60 c-17 -34 -30 -51 -30 -40 -1 51 34 311 43 316 5 4 0 10 -12 14 -29
9 -33 4 -37 -42 -2 -21 -10 -98 -19 -172 -15 -137 -12 -161 21 -161 19 0 18
-19 -1 -26 -9 -4 -14 -11 -13 -18 2 -14 -21 -180 -32 -226 -4 -19 -16 -96 -26
-171 -16 -121 -20 -135 -36 -131 -10 2 -18 9 -18 14 0 5 4 7 9 3 6 -3 6 7 0
27 -5 19 -7 87 -3 158 4 69 6 127 6 130 0 52 -4 70 -13 64 -7 -4 -9 -25 -7
-55 6 -56 -15 -90 -26 -44 -7 28 -24 33 -32 10 -4 -8 -11 -12 -16 -8 -7 4 -9
-4 -5 -23 3 -16 -1 -54 -9 -84 -7 -30 -15 -89 -16 -130 l-3 -76 -27 4 c-26 4
-28 6 -21 45 5 31 3 38 -7 32 -10 -6 -12 1 -6 36 4 24 11 46 17 50 6 3 7 17 4
31 -3 13 1 87 10 164 10 76 20 164 24 194 5 44 10 55 26 59 30 5 35 20 34 94
-2 68 -13 79 -23 22 -2 -16 -2 4 0 45 3 41 9 91 14 110 8 29 9 24 5 -28 -3
-35 -1 -61 3 -58 5 3 9 28 11 56 1 28 6 63 12 76 5 14 9 27 9 30 0 2 -64 3
-142 3 -79 -1 -133 -4 -120 -6z"/>
<path d="M10590 13853 c23 -4 25 -7 22 -53 -4 -46 -2 -50 22 -56 38 -9 32 -24
-11 -24 -31 -1 -35 -3 -20 -11 23 -14 22 -39 -3 -39 -13 0 -17 -5 -14 -14 4
-10 -3 -16 -23 -19 -15 -2 18 -5 75 -6 64 0 101 3 97 9 -3 5 -11 8 -18 6 -7
-1 -9 -1 -4 1 13 8 7 43 -7 43 -23 0 -27 28 -5 35 16 5 19 16 19 60 0 53 1 55
33 64 24 7 6 9 -78 9 -60 -1 -99 -3 -85 -5z"/>
<path d="M7175 13653 c-28 -5 -58 -31 -49 -45 8 -13 -63 -20 -164 -16 -77 2
-98 0 -95 -9 3 -7 18 -13 34 -13 34 0 33 3 12 -46 -9 -22 -17 -50 -17 -63 -1
-13 -7 -26 -13 -28 -13 -5 -18 44 -13 106 3 42 -18 13 -29 -40 -8 -38 -8 -55
0 -65 6 -8 7 -14 2 -14 -4 0 -23 -13 -41 -30 -18 -16 -29 -30 -25 -30 5 0 15
6 21 12 18 18 131 16 143 -3 17 -28 8 -32 -66 -27 -45 3 -75 1 -75 -5 0 -5 -7
-4 -15 3 -12 10 -20 7 -43 -17 -41 -40 -55 -71 -47 -101 6 -24 8 -25 17 -9 7
13 13 15 22 7 10 -7 17 -6 26 5 9 11 25 13 66 9 38 -5 64 -2 94 10 22 9 56 16
74 16 46 0 51 -26 18 -89 l-26 -49 42 -46 c24 -26 41 -50 38 -55 -7 -11 31
-51 49 -51 7 0 16 8 18 18 3 10 5 6 6 -11 0 -16 -3 -36 -8 -46 -6 -11 -6 -22
0 -32 8 -11 12 -11 16 -1 2 6 10 12 17 12 16 0 38 68 25 76 -18 11 -8 21 16
16 20 -3 24 -1 19 11 -3 9 -12 18 -20 21 -19 7 -18 26 2 26 8 0 20 -13 25 -29
10 -28 10 -29 119 -36 60 -3 135 -10 167 -15 32 -4 61 -5 64 -1 6 6 36 392 41
515 2 55 0 60 -20 61 -12 1 -22 -2 -22 -7 0 -4 5 -8 11 -8 5 0 7 -4 4 -10 -12
-20 -19 -62 -36 -212 l-13 -107 -76 5 c-75 6 -77 5 -94 -21 -16 -25 -35 -79
-50 -147 -9 -39 -31 -35 -32 5 -1 17 -5 56 -9 85 -6 38 -5 52 4 52 7 0 1 10
-12 23 -14 12 -27 36 -31 54 -4 25 -1 34 19 47 13 9 33 16 44 16 24 0 51 36
51 68 0 25 -36 102 -48 103 -71 6 -112 2 -107 -8 2 -7 0 -13 -5 -13 -6 0 -10
9 -10 20 0 12 -10 24 -22 30 -18 7 -19 9 -5 9 24 1 21 21 -4 21 -11 0 -17 4
-14 10 4 6 16 8 28 4 21 -6 21 -5 3 8 -24 19 -17 52 12 56 12 2 22 8 22 13 0
5 -1 8 -2 8 -2 -1 -16 -4 -33 -6z"/>
<path d="M10560 13600 c0 -6 23 -10 51 -10 31 0 48 -4 44 -10 -3 -5 -22 -10
-40 -10 -26 0 -33 -3 -29 -15 4 -9 0 -15 -8 -15 -17 0 -19 -13 -21 -140 -1
-47 -8 -95 -15 -107 -14 -26 -16 -59 -3 -68 5 -3 12 5 14 17 3 17 5 14 6 -9 1
-22 6 -33 16 -33 11 0 15 11 15 41 0 39 1 41 28 37 26 -4 27 -3 23 39 -1 24 1
43 7 43 5 0 7 11 4 25 -3 18 0 25 11 25 19 0 29 40 15 58 -10 11 -8 16 5 23
22 13 22 29 0 30 -15 0 -15 2 2 9 17 7 17 9 3 9 -10 1 -18 6 -18 11 0 6 8 10
18 10 14 0 15 2 2 10 -12 7 -10 11 10 19 l25 10 -30 1 c-16 1 -54 4 -82 6 -31
2 -53 0 -53 -6z"/>
<path d="M11407 13583 c-9 -2 -15 -8 -12 -13 3 -5 13 -6 23 -3 15 6 16 5 2
-11 -8 -10 -14 -33 -13 -50 2 -29 2 -30 -6 -6 -9 24 -9 24 -10 -7 -1 -25 -7
-33 -32 -42 -18 -6 -50 -11 -73 -12 l-41 -1 33 -8 c44 -10 50 -18 20 -29 -21
-8 -26 -20 -38 -83 -7 -40 -14 -89 -16 -108 -1 -19 -6 -52 -9 -72 -7 -36 -6
-38 19 -38 17 0 26 -5 26 -16 0 -14 -9 -16 -62 -11 -35 4 -124 9 -198 13 -128
6 -136 5 -147 -14 -10 -17 -68 -278 -114 -516 l-11 -59 -56 7 c-319 38 -764
90 -922 107 -358 38 -455 54 -451 70 2 7 6 22 8 32 5 15 -2 17 -58 17 -67 0
-96 -10 -85 -29 9 -13 -78 -14 -109 -1 -15 6 -6 9 33 9 98 2 53 19 -65 25 -65
4 -153 9 -195 11 -43 3 -97 1 -121 -4 -25 -4 -74 -4 -113 2 -85 12 -115 35
-108 81 l5 31 -15 -26 c-27 -46 -108 -250 -185 -464 -10 -27 -28 -70 -39 -95
-41 -89 -52 -123 -47 -141 6 -18 7 -18 28 1 16 15 35 20 82 20 33 0 66 -5 73
-12 8 -8 15 -8 27 2 8 7 15 9 15 4 0 -5 6 -17 14 -26 11 -15 17 -15 47 -5 19
7 39 15 44 18 6 4 25 10 43 14 32 7 33 6 27 -22 -4 -15 -9 -35 -12 -43 -2 -8
-20 -96 -38 -195 -40 -216 -86 -453 -194 -1000 -45 -225 -86 -439 -92 -475 -6
-36 -25 -129 -40 -208 -16 -79 -29 -146 -29 -151 0 -4 15 -12 33 -18 17 -6
115 -40 217 -76 203 -71 767 -270 1235 -434 397 -139 415 -145 1478 -522 220
-78 402 -141 406 -141 3 0 18 62 33 138 58 299 241 1195 305 1497 l68 320 3
776 2 776 -95 9 c-53 5 -95 14 -95 19 0 6 17 8 38 5 20 -2 57 -4 82 -5 l45 0
3 40 c2 22 9 44 15 48 7 5 -7 6 -31 3 -29 -4 -41 -3 -37 4 3 5 22 10 41 10 58
0 42 26 -23 38 l-58 11 58 -3 57 -3 0 156 c0 85 -4 151 -8 146 -5 -6 -26 -50
-47 -100 -20 -49 -41 -94 -44 -100 -4 -5 -14 -29 -21 -53 -12 -37 -17 -43 -39
-40 -24 3 -27 -1 -38 -52 -6 -30 -12 -67 -12 -82 -1 -15 -6 -30 -12 -34 -20
-12 -28 11 -19 61 5 28 12 64 15 81 l6 32 -88 11 c-49 6 -133 18 -188 26 -55
8 -120 17 -145 20 l-45 7 -16 -76 c-12 -61 -13 -76 -2 -76 8 0 13 13 13 34 0
63 11 96 32 96 10 0 17 -4 14 -9 -4 -5 3 -7 14 -4 17 5 16 -2 -15 -63 -18 -38
-31 -72 -29 -76 6 -9 -79 -11 -88 -3 -2 3 4 49 14 103 101 522 128 688 120
729 -8 38 -7 45 13 65 18 20 44 118 59 232 1 11 -14 15 -37 9z"/>
<path d="M1685 13416 c-11 -17 -14 -35 -9 -65 4 -28 3 -41 -5 -41 -20 0 -11
-46 14 -70 15 -14 25 -18 25 -11 0 11 3 11 15 1 23 -19 18 -30 -15 -30 -22 0
-30 -5 -31 -17 0 -16 -2 -15 -10 2 -8 17 -9 17 -4 -5 2 -14 5 -32 5 -40 0 -22
59 -43 77 -29 10 9 13 8 13 -4 0 -9 -4 -19 -10 -22 -5 -3 -9 -17 -8 -30 1 -13
6 -22 10 -19 4 2 9 -15 11 -38 3 -38 4 -36 5 14 1 31 7 60 12 63 16 10 12 85
-5 91 -25 10 -17 34 10 34 l26 0 -3 98 c-3 117 -15 141 -70 142 -29 0 -41 -6
-53 -24z"/>
<path d="M11398 13085 c-23 -116 -78 -413 -77 -425 0 -21 62 102 129 257 l58
133 -49 6 c-42 6 -48 10 -51 33 -3 26 -4 26 -10 -4z"/>
<path d="M6670 13021 c0 -9 -6 -23 -12 -30 -13 -14 -9 -14 36 5 8 3 19 -3 25
-14 9 -17 8 -19 -9 -15 -21 5 -28 -11 -10 -22 6 -3 10 -19 10 -35 0 -57 26
-84 32 -33 3 29 28 45 28 18 0 -12 6 -15 20 -10 15 5 23 0 31 -19 14 -31 6
-55 -17 -52 -10 2 -26 -6 -36 -16 -15 -15 -18 -28 -13 -58 4 -21 13 -44 21
-51 8 -6 14 -8 14 -4 0 4 9 -4 21 -19 28 -35 69 -36 69 -1 0 25 -15 35 -22 13
-3 -8 -9 -8 -22 -1 -17 9 -16 11 10 18 16 5 39 7 51 6 20 -2 23 1 19 30 -2 21
-10 36 -22 40 -17 7 -17 8 -1 8 21 1 22 14 2 31 -20 17 -19 33 5 48 11 7 20
17 20 23 0 5 -4 7 -10 4 -5 -3 -10 3 -10 14 0 22 41 71 59 71 6 0 11 4 11 10
0 5 -17 9 -37 9 -21 -1 -54 3 -73 8 -33 9 -34 9 -11 16 13 3 31 3 40 -2 9 -4
30 -4 46 0 24 5 25 7 8 8 -13 0 -23 6 -23 12 0 8 -15 10 -52 4 -64 -9 -158
-12 -158 -5 0 3 -9 6 -20 7 -13 1 -20 -4 -20 -16z"/>
<path d="M7112 12690 c-18 -11 -39 -19 -45 -18 -7 2 -29 -10 -49 -25 -21 -17
-42 -26 -49 -21 -7 4 -9 3 -6 -3 9 -14 -35 -25 -59 -16 -16 6 -14 9 11 20 25
12 26 13 5 8 -74 -16 -112 -18 -121 -4 -6 10 -9 7 -9 -12 0 -14 -11 -36 -25
-49 -31 -29 -31 -35 -1 -35 16 0 21 4 15 11 -10 12 -2 24 18 24 7 0 13 -7 13
-15 0 -40 140 11 270 98 26 18 56 37 66 44 11 6 15 12 9 12 -5 1 -25 -8 -43
-19z"/>
<path d="M6263 12684 c-16 -7 -17 -60 -1 -117 l11 -44 60 19 c71 22 77 22 77
3 0 -17 -36 -38 -53 -31 -9 3 -9 5 1 5 6 1 12 6 12 11 0 13 -21 13 -40 0 -13
-9 -13 -11 0 -20 8 -5 11 -10 5 -11 -5 0 -21 -2 -34 -5 -13 -2 -29 0 -36 6 -9
8 -14 4 -19 -12 -10 -38 -7 -165 5 -195 6 -15 10 -30 9 -31 -1 -2 7 -10 16
-17 14 -10 16 -16 7 -26 -36 -45 -54 -96 -60 -171 -5 -63 -3 -82 8 -89 28 -18
58 -9 83 24 29 38 36 68 11 47 -22 -18 -18 -6 10 36 16 23 25 51 25 75 0 21 5
41 10 44 6 4 8 14 5 24 -5 17 27 61 46 61 5 0 9 7 7 16 -2 12 12 21 52 35 l55
18 -52 0 c-28 1 -64 -4 -78 -9 -23 -9 -26 -8 -21 5 3 9 0 15 -11 15 -12 0 -13
3 -3 15 7 9 35 15 78 17 l67 3 -32 17 c-19 9 -35 12 -39 7 -9 -15 -80 -10 -94
6 -10 12 -8 16 15 25 14 5 39 10 55 10 40 0 60 10 59 29 0 28 -64 186 -73 183
-5 -2 -12 1 -15 6 -7 11 -110 24 -128 16z"/>
<path d="M7988 12383 c-36 -41 -51 -88 -51 -158 0 -87 13 -116 52 -113 16 1
36 -3 44 -10 20 -17 38 -8 65 32 19 28 22 41 16 88 -6 56 1 81 31 112 26 26 3
57 -43 56 -20 -1 -51 2 -67 5 -23 5 -35 2 -47 -12z"/>
<path d="M4771 12177 c-54 -136 -61 -169 -61 -293 l0 -122 48 -10 c75 -17 102
-20 96 -11 -3 5 -11 9 -18 9 -10 0 -10 10 -2 45 6 25 15 45 19 45 5 0 4 6 -2
13 -13 17 -41 105 -66 206 -15 62 -16 80 -6 108 16 44 9 53 -8 10z"/>
<path d="M4977 12180 c-10 -12 -17 -37 -17 -60 0 -22 -4 -40 -8 -40 -4 0 -13
-18 -19 -41 -8 -29 -8 -38 0 -30 19 19 22 13 23 -42 1 -38 0 -45 -6 -27 l-8
25 -1 -27 c-1 -15 4 -30 10 -34 6 -3 9 -19 7 -35 -3 -20 0 -29 9 -29 9 0 13
-13 13 -40 0 -35 3 -40 22 -40 16 0 19 -3 11 -11 -8 -8 -17 -8 -32 0 -12 7
-21 8 -21 3 0 -9 43 -32 59 -32 12 0 26 41 46 130 42 187 73 278 99 292 20 11
19 11 -4 20 -19 7 -152 38 -163 38 -2 0 -10 -9 -20 -20z"/>
<path d="M6160 11839 c0 -7 -12 -10 -29 -7 -24 3 -27 1 -23 -16 4 -16 1 -18
-16 -14 -20 6 -21 3 -15 -41 15 -120 17 -125 48 -136 17 -5 33 -14 36 -18 12
-16 19 38 19 141 0 61 -4 102 -10 102 -5 0 -10 -5 -10 -11z"/>
<path d="M6208 11676 c-3 -16 -2 -40 2 -55 5 -16 9 -19 9 -8 1 24 28 33 49 15
9 -8 43 -25 74 -38 34 -14 55 -28 51 -34 -3 -6 -3 -8 2 -4 4 4 13 4 19 -1 16
-13 86 -34 121 -36 63 -5 61 -5 43 -16 -36 -21 -15 -69 31 -69 26 0 140 -60
161 -85 7 -8 24 -15 39 -15 28 1 27 2 -26 37 -10 7 7 4 37 -8 30 -11 68 -33
83 -50 25 -27 32 -30 67 -24 22 4 51 16 65 27 41 32 42 12 1 -26 -32 -31 -34
-36 -19 -45 17 -9 16 -11 -5 -34 -12 -13 -19 -27 -15 -30 3 -4 2 -7 -4 -7 -5
0 -15 11 -22 24 -9 16 -25 26 -50 30 -20 3 -57 16 -83 29 -51 26 -55 12 -5
-18 23 -14 28 -20 15 -23 -9 -2 -63 19 -120 47 -56 27 -125 56 -153 64 -80 24
-286 67 -335 69 l-45 3 0 -62 c0 -55 3 -65 25 -81 14 -10 124 -51 245 -90 212
-69 223 -71 293 -65 59 5 70 8 61 19 -9 12 -3 14 38 14 27 0 54 -5 60 -11 8
-8 37 -9 91 -4 l79 7 6 111 c4 62 7 129 7 149 l0 38 -47 -21 c-27 -12 -55 -25
-63 -29 -8 -4 -30 -3 -49 2 -18 5 -43 7 -54 4 -11 -3 -36 3 -56 13 -47 24
-171 61 -204 61 -14 0 -28 4 -31 9 -6 9 19 8 139 -6 53 -6 79 -5 108 6 56 21
46 34 -23 26 -41 -5 -60 -4 -60 4 0 6 -9 11 -19 11 -32 0 -35 20 -4 22 15 1
36 2 45 3 34 2 29 14 -8 21 -25 5 -39 3 -42 -5 -2 -6 -8 -11 -14 -11 -6 0 -8
7 -4 15 4 10 -3 17 -22 21 -15 4 -32 13 -38 20 -13 17 -107 40 -193 48 -52 5
-61 4 -52 -7 6 -8 8 -17 4 -20 -12 -13 -71 -7 -83 8 -7 8 -18 15 -25 15 -7 0
-18 7 -25 15 -7 8 -21 15 -32 15 -10 0 -22 10 -27 22 -8 21 -8 21 -13 -6z"/>
<path d="M6202 11487 c3 -29 6 -32 31 -29 28 4 98 -15 107 -28 3 -4 46 -19 97
-34 90 -26 187 -33 227 -17 18 7 16 9 -14 19 -18 7 -41 12 -50 12 -9 0 -27 11
-40 25 -17 18 -33 25 -54 24 -17 -1 -55 5 -85 14 -59 18 -125 23 -86 7 11 -4
35 -14 53 -21 22 -8 29 -15 21 -20 -7 -4 -22 -2 -33 5 -12 7 -49 21 -83 31
-35 10 -63 22 -63 26 0 4 10 5 23 2 12 -3 19 -2 15 2 -4 4 -21 9 -38 11 -30 4
-31 2 -28 -29z"/>
<path d="M691 11232 c-35 -34 -39 -62 -14 -88 13 -13 14 -19 5 -22 -15 -5 -18
-242 -2 -242 6 0 10 -18 10 -40 0 -29 4 -40 15 -40 26 0 19 -65 -10 -96 -23
-24 -24 -29 -10 -44 8 -9 13 -19 12 -21 -2 -2 11 -17 29 -32 l34 -29 10 27 c9
23 7 30 -12 46 -13 10 -29 18 -35 19 -18 0 -16 20 1 20 7 0 19 7 26 15 7 8 21
15 31 15 13 0 19 7 19 21 0 11 5 29 10 40 9 16 7 19 -15 19 -23 0 -25 3 -25
49 0 27 -7 62 -15 77 -9 17 -11 30 -5 32 6 2 10 39 10 83 0 64 -3 79 -15 79
-15 0 -18 -35 -20 -203 0 -23 -5 -37 -12 -37 -18 0 -18 237 -1 242 10 4 10 13
1 41 -6 21 -7 37 -2 37 5 0 9 -8 10 -17 1 -10 5 0 10 21 13 56 -2 66 -40 28z"/>
<path d="M6960 11096 c-77 -10 -85 -13 -82 -31 3 -19 2 -19 -17 3 -14 16 -30
22 -58 21 -94 -1 -74 -15 96 -64 94 -27 172 -47 175 -44 2 2 6 31 7 64 5 71 9
69 -121 51z"/>
<path d="M11976 10268 c-18 -80 -234 -1169 -261 -1313 -9 -49 -19 -100 -22
-112 -3 -13 -1 -23 4 -23 5 0 17 39 27 88 9 48 25 123 36 167 10 44 25 116 34
160 8 44 32 152 52 240 20 88 36 168 36 179 -1 19 17 19 91 1 l27 -7 0 346 c0
190 -2 346 -4 346 -3 0 -12 -33 -20 -72z"/>
<path d="M7537 9768 c-10 -5 -36 -7 -58 -3 -25 4 -39 3 -39 -4 0 -6 -9 -11
-20 -11 -11 0 -29 -9 -39 -19 -11 -11 -30 -21 -43 -24 -16 -3 -13 -5 12 -6 59
-2 80 -11 77 -33 -1 -14 8 -23 38 -34 22 -7 48 -14 58 -14 10 0 49 -16 87 -35
47 -24 70 -31 70 -22 0 14 -80 57 -106 57 -23 0 -28 27 -10 55 16 24 15 25 -4
25 -11 0 -20 5 -20 10 0 12 34 13 58 1 33 -17 117 -41 142 -41 34 0 14 13 -55
35 -63 20 -103 40 -120 61 -8 8 -16 9 -28 2z"/>
<path d="M9650 9360 c-36 -36 -23 -150 18 -150 10 0 23 -5 28 -10 20 -20 48
14 46 54 -2 20 2 45 8 55 13 25 2 53 -19 49 -9 -1 -26 3 -38 10 -19 11 -26 9
-43 -8z"/>
<path d="M9497 8874 c-4 -4 -7 -16 -7 -26 0 -14 7 -18 38 -17 25 1 91 -20 202
-64 91 -36 184 -68 207 -72 23 -3 63 -20 88 -36 26 -17 140 -66 254 -111 206
-80 243 -98 206 -98 -57 0 -265 -100 -265 -127 0 -16 16 -17 25 -3 9 15 93 56
163 79 63 21 64 21 162 -4 14 -4 20 -3 14 2 -6 4 -8 17 -4 28 6 16 15 19 51
17 63 -4 179 -46 292 -105 94 -49 108 -62 87 -83 -16 -16 -38 -101 -29 -115 6
-10 10 -10 23 0 9 8 16 21 17 30 0 12 2 11 9 -4 7 -19 8 -19 18 5 5 14 21 35
33 47 l24 22 89 -48 c51 -28 83 -51 77 -55 -6 -4 -42 -4 -79 0 -37 4 -70 7
-73 6 -4 -1 -28 -3 -53 -5 -26 -2 -49 -7 -53 -11 -3 -3 -12 -6 -18 -6 -22 0
-85 -66 -85 -88 0 -12 5 -22 11 -22 5 0 7 -4 4 -10 -3 -5 -11 -10 -16 -10 -6
0 -7 5 -4 10 14 22 -18 8 -72 -34 -72 -54 -139 -96 -153 -96 -7 0 -10 14 -8
33 3 28 -1 34 -32 49 -26 13 -36 25 -37 45 -2 32 26 83 45 83 11 0 12 -3 4
-13 -9 -10 -3 -17 23 -29 20 -9 39 -12 47 -7 7 5 20 9 28 9 10 -1 7 -7 -9 -21
-21 -17 -22 -22 -10 -30 7 -5 17 -9 21 -9 3 0 8 -6 10 -14 2 -10 19 -3 62 25
32 21 60 40 63 42 2 3 -29 12 -69 22 -40 10 -94 24 -119 32 -26 8 -91 25 -145
37 -87 21 -103 22 -132 10 -27 -11 -104 -66 -162 -117 -8 -7 -75 -59 -147
-115 -123 -95 -150 -122 -122 -122 5 0 8 -4 4 -9 -3 -5 0 -13 6 -17 8 -4 9 -3
5 4 -4 7 -2 12 4 12 25 0 467 -113 492 -126 34 -17 38 -17 38 0 0 8 -12 19
-27 25 -19 7 -21 10 -6 7 22 -4 59 25 98 75 11 14 29 30 40 37 l20 11 -20 1
c-16 1 -14 4 8 12 51 18 47 -6 -8 -52 -30 -25 -54 -50 -54 -56 -1 -7 -8 -14
-16 -18 -8 -3 -15 -10 -15 -16 0 -12 3 -9 207 169 91 79 167 150 170 158 3 9
9 10 17 4 7 -6 28 -6 56 0 25 5 90 18 146 29 55 10 113 22 127 25 16 4 27 3
27 -3 0 -6 -23 -13 -51 -17 -28 -4 -80 -22 -115 -41 -83 -44 -179 -76 -217
-72 -16 2 -32 -2 -34 -8 -2 -7 29 -14 94 -18 170 -12 262 -26 331 -51 82 -30
94 -24 21 10 -51 23 -109 34 -264 51 l-60 7 100 48 c105 50 203 75 254 64 20
-4 31 -3 31 4 0 6 -6 11 -12 11 -7 0 -22 7 -32 15 -18 13 -18 15 -2 21 11 4
27 -3 47 -22 27 -26 29 -27 29 -6 0 11 -4 24 -10 27 -16 10 -12 22 10 28 30 8
25 42 -7 56 l-28 11 24 -20 c27 -24 26 -28 -15 -36 -18 -3 -37 0 -49 10 -19
14 -19 15 20 49 35 31 42 33 56 21 33 -29 36 -21 43 96 2 19 6 42 10 50 4 11
-3 19 -26 28 -38 14 -51 6 -23 -14 19 -14 19 -15 -5 -60 -25 -48 -103 -129
-123 -129 -19 0 -157 77 -157 87 0 13 94 0 139 -18 18 -8 41 -14 50 -13 24 1
-80 49 -109 50 -14 0 -36 4 -50 9 -23 7 -20 9 38 37 34 17 87 34 117 38 69 8
72 28 9 56 -54 23 -76 18 -179 -35 -33 -17 -63 -32 -67 -34 -5 -2 -8 36 -8 84
0 48 -3 84 -7 81 -3 -4 -9 -48 -13 -97 -4 -50 -11 -95 -16 -100 -6 -6 -41 7
-94 34 -170 89 -249 118 -335 126 -70 6 -111 20 -340 114 -257 106 -706 279
-755 291 -14 3 -29 3 -33 -1z"/>
<path d="M9758 7788 c-49 -13 -115 -71 -123 -109 -9 -41 14 -73 78 -106 50
-27 58 -28 187 -27 106 0 145 4 180 18 25 10 61 20 80 22 19 3 40 11 46 19 11
15 29 21 21 8 -3 -5 12 -9 32 -9 20 -1 66 -10 101 -19 95 -26 123 -28 145 -12
19 14 18 15 -8 10 -15 -3 -55 4 -90 15 -34 12 -79 24 -99 28 -28 4 -38 11 -38
25 0 29 -36 43 -62 24 -29 -19 -44 -20 -28 0 15 18 -1 20 -18 3 -9 -9 -22 -8
-54 2 -24 7 -61 15 -83 16 -37 3 -39 2 -21 -11 11 -8 27 -15 36 -15 10 0 31
-5 49 -11 48 -17 40 -43 -21 -69 -109 -47 -312 -24 -384 43 -31 29 -33 34 -22
57 23 45 95 71 202 73 84 2 96 4 96 20 0 15 -10 17 -82 16 -46 -1 -99 -5 -120
-11z"/>
<path d="M10610 7666 c-7 -9 -11 -18 -9 -19 23 -17 194 -30 422 -33 147 -1
280 -5 296 -9 20 -4 30 -2 34 9 4 9 3 17 -1 19 -4 2 -132 4 -284 6 -262 3
-308 7 -424 37 -12 3 -26 -1 -34 -10z"/>
<path d="M11890 7642 c-23 -11 -51 -42 -83 -89 -48 -72 -49 -73 -93 -73 -24 0
-44 -4 -44 -10 0 -5 8 -10 17 -10 27 0 2 -18 -32 -23 -26 -3 -25 -4 8 -6 22 0
52 7 68 16 24 14 33 15 47 5 46 -32 81 -45 137 -50 47 -3 63 -1 74 11 7 9 10
20 7 25 -9 14 -106 42 -158 44 -27 2 -48 5 -48 8 0 3 13 28 30 56 41 72 72 94
131 94 27 0 49 5 49 10 0 16 -72 11 -110 -8z"/>
<path d="M10448 7470 c-20 -5 -75 -33 -122 -62 -74 -45 -87 -57 -92 -86 -4
-22 -2 -38 8 -50 20 -23 58 -105 58 -125 0 -18 51 -60 95 -78 43 -17 457 -30
578 -18 109 11 218 41 238 65 17 20 12 69 -8 101 -9 13 -14 25 -12 27 2 1 25
15 52 30 26 15 47 31 47 37 0 9 -80 -31 -103 -52 -11 -9 -97 52 -154 109 -31
30 -50 42 -72 42 -16 0 -41 4 -55 10 -101 38 -383 69 -458 50z m196 -50 c-65
-10 -113 -25 -194 -65 -129 -62 -126 -53 -38 -95 69 -34 87 -50 53 -50 -7 0
-40 18 -74 40 -34 22 -63 40 -65 40 -2 0 -9 -14 -17 -31 -12 -30 -11 -33 17
-55 16 -13 34 -24 39 -24 15 0 85 -49 85 -60 0 -9 -48 5 -101 30 -14 6 -35 31
-47 55 -20 41 -20 44 -4 76 30 58 242 149 342 148 l55 -1 -51 -8z"/>
<path d="M10991 5257 c-195 -1028 -231 -1230 -231 -1284 0 -31 5 -73 11 -93
14 -45 54 -96 64 -81 3 6 1 11 -5 11 -6 0 -9 4 -5 10 3 5 14 1 25 -10 11 -11
26 -20 34 -20 8 0 22 -3 32 -7 13 -5 15 -3 9 7 -6 10 -3 12 13 8 12 -3 23 -1
26 6 3 8 7 7 14 -2 7 -10 15 -11 28 -4 11 6 55 24 99 41 79 30 238 100 405
178 47 22 117 55 155 72 39 18 97 45 130 61 33 16 70 31 83 35 12 3 22 11 22
16 0 5 7 9 16 9 9 0 31 7 50 16 l34 16 0 373 0 372 -49 26 c-27 15 -54 34 -61
42 -7 8 -38 31 -69 50 l-57 34 2 76 c1 42 4 79 7 82 3 3 1 11 -6 17 -16 16
-302 176 -315 176 -5 0 -14 -30 -21 -68 -13 -74 -26 -104 -38 -86 -5 6 -39 28
-78 49 -38 21 -88 50 -110 65 -38 25 -152 90 -157 90 -2 0 -27 -127 -57 -283z"/>
<path d="M0 1483 l0 -1483 535 0 535 0 -6 33 c-7 38 -57 255 -81 347 -9 36
-18 72 -18 80 -1 8 -9 40 -18 70 -9 30 -23 87 -32 125 -9 39 -21 79 -25 90 -5
11 -18 56 -28 100 -11 44 -36 136 -57 205 -20 69 -43 145 -50 170 -20 70 -169
496 -205 585 -17 44 -39 103 -49 130 -10 28 -31 77 -46 110 -15 33 -33 74 -40
90 -7 17 -27 62 -44 100 -17 39 -39 88 -49 110 -29 67 -212 426 -252 495 -21
36 -45 79 -54 95 -14 27 -15 -103 -16 -1452z"/>
<path d="M6408 2602 c35 -85 80 -128 172 -163 28 -11 77 -32 108 -48 31 -16
81 -34 109 -41 93 -24 81 7 -25 67 -37 20 -130 74 -206 120 -143 85 -171 97
-158 65z"/>
</g>
</svg>
